<svg width="650" height="637" fill="none" xmlns="http://www.w3.org/2000/svg"><g opacity=".5"><path d="M302.125 131.472h25.721M304.201 103.112h21.575M308.346 46.404h13.286M310.415 18.05h9.141M314.986 131.472V.229M327.87 462.451h-25.727M325.794 490.805h-21.575M321.649 547.518h-13.286M319.574 575.872h-9.135M315.009 462.451v131.242M479.861 277.179V302.9M508.215 279.255v21.575M564.928 283.399V296.68M593.282 285.469v9.141M479.861 290.039h131.242M148.881 302.918v-25.721M120.522 300.848v-21.575M63.814 296.703v-13.286M35.46 294.628v-9.141M148.882 290.057H17.64" stroke="#fff" stroke-width="1.799" stroke-miterlimit="10"/><circle cx="221.065" cy="221.065" r="220.445" transform="matrix(-1 0 0 1 535.436 69.938)" stroke="#B5B5B5" stroke-width="1.24"/><path stroke="#B5B5B5" stroke-width=".742" d="M314.183 158.724V423.28M182.092 291.557l132.461.241"/><path stroke="#fff" stroke-width="1.964" d="M346.768 157.141h-18.786M337.375 170.804h-9.393M337.375 184.466h-9.393M337.375 198.128h-9.393M337.375 211.791h-9.393M346.768 225.453h-18.786M337.375 239.115h-9.393M337.375 252.777h-9.393M337.375 266.44h-9.393M337.375 280.102h-9.393M346.768 293.764h-18.786M346.768 293.764h-18.786M337.375 307.426h-9.393M337.375 321.089h-9.393M337.375 334.751h-9.393M337.375 348.413h-9.393M346.768 362.075h-18.786M337.375 375.738h-9.393M337.375 389.4h-9.393M337.375 403.062h-9.393M337.375 416.725h-9.393M346.768 430.387h-18.786"/><path d="M294.025 398.797v5.296l-4.987-.041v-5.255c0-1.456-.261-2.589-.783-3.4-.522-.81-1.346-1.38-2.473-1.71-1.126-.344-2.603-.515-4.43-.515h-4.678c-1.388 0-2.562.089-3.524.268-.976.178-1.759.48-2.349.906a3.767 3.767 0 0 0-1.34 1.711c-.288.714-.433 1.6-.433 2.658v5.482h-5.007v-5.482c0-1.731.282-3.304.845-4.719a9.977 9.977 0 0 1 2.473-3.647c1.071-1.017 2.397-1.8 3.977-2.35 1.58-.549 3.379-.824 5.399-.824h4.637c2.033 0 3.832.275 5.399.824 1.566.55 2.891 1.333 3.977 2.35 1.071 1.002 1.889 2.218 2.452 3.647.563 1.429.845 3.029.845 4.801Zm-30.004 1.793h30.004v6.038h-30.004v-6.038Zm0-30.506v-9.624c0-2.006.343-3.716 1.03-5.131s1.704-2.5 3.05-3.256c1.346-.756 3.009-1.133 4.987-1.133 1.621 0 3.009.219 4.163.659 1.14.44 2.095 1.065 2.864 1.875.756.811 1.36 1.779 1.814 2.906l1.092 1.834v7.81l-5.008.021v-5.42c0-.824-.178-1.504-.536-2.04-.371-.55-.886-.955-1.545-1.216-.673-.275-1.456-.412-2.349-.412-.948 0-1.759.123-2.432.371-.687.233-1.209.611-1.566 1.133-.371.508-.557 1.175-.557 1.999v3.586h24.997v6.038h-30.004Zm30.004-13.622-13.374 5.502-.021-6.326 13.106-5.626h.289v6.45Zm-24.646-33.247 24.646 6.45v6.367l-30.004-9.376v-3.977l5.358.536Zm24.646-5.09-24.646 6.491-5.358.598v-4.039l30.004-9.459v6.409Zm-11.19-.227h5.008v13.539h-5.008v-13.539Zm-18.814-27.745h30.004v6.038h-30.004v-6.038Zm0-14.899 14.899 9.726 7.418 5.956-6.037 1.154-6.43-3.854-9.85-5.646v-7.336Zm30.004 6.965-13.786 6.553-3.916-4.431 17.702-9.232v7.11Zm-30.004-28.096h30.004v6.038h-30.004v-6.038Zm0-14.899 14.899 9.727 7.418 5.955-6.037 1.154-6.43-3.853-9.85-5.647v-7.336Zm30.004 6.965-13.786 6.554-3.916-4.431 17.702-9.232v7.109Zm-24.646-32.917 24.646 6.45v6.367l-30.004-9.376v-3.977l5.358.536Zm24.646-5.09-24.646 6.491-5.358.598v-4.039l30.004-9.459v6.409Zm-11.19-.227h5.008v13.539h-5.008v-13.539Zm-18.814-21.728v-9.624c0-2.005.343-3.716 1.03-5.131s1.704-2.5 3.05-3.256c1.346-.755 3.009-1.133 4.987-1.133 1.621 0 3.009.22 4.163.659 1.14.44 2.095 1.065 2.864 1.876.756.81 1.36 1.779 1.814 2.905l1.092 1.834v7.81l-5.008.021v-5.42c0-.824-.178-1.504-.536-2.04-.371-.549-.886-.955-1.545-1.216-.673-.274-1.456-.412-2.349-.412-.948 0-1.759.124-2.432.371-.687.234-1.209.611-1.566 1.133-.371.509-.557 1.175-.557 1.999v3.586h24.997v6.038h-30.004Zm30.004-13.621-13.374 5.502-.021-6.327 13.106-5.625h.289v6.45Z" fill="#fff"/><path d="m308.888 526-.697 20.084M301.126 525.605l-.772 11.586M293.383 525.021l-1.168 11.548M285.677 524.041l-1.544 11.511M277.99 522.891l-1.921 11.455M270.36 521.535l-2.317 11.38M261.713 519.557l-4.729 19.537M254.196 517.598l-3.109 11.191M246.735 515.45l-3.467 11.078M239.387 512.963l-3.843 10.965M232.115 510.25l-4.22 10.833M224.899 507.367l-4.559 10.683M216.817 503.713l-8.591 18.18M209.884 500.246l-5.313 10.343M203.026 496.61l-5.652 10.155M196.281 492.729l-5.972 9.966M189.724 488.584l-6.311 9.759M183.262 484.288l-6.632 9.533M176.046 479.126l-12.076 16.052M169.942 474.322l-7.291 9.043M163.97 469.348l-7.574 8.799M158.148 464.205l-7.856 8.553M152.516 458.854l-8.139 8.29M147.089 453.296l-8.402 8.026M141.079 446.778l-15.053 13.338M135.993 440.919l-8.949 7.404M131.169 434.814l-9.194 7.122M126.516 428.597l-9.42 6.82M122.013 422.267l-9.627 6.5M117.831 415.729l-9.854 6.161M113.271 408.118l-17.408 10.041M109.485 401.354l-10.25 5.464M105.942 394.44l-10.437 5.106M102.665 387.394l-10.589 4.766M99.575 380.272l-10.74 4.409M96.73 373.056l-10.89 4.051M93.829 364.672l-19.085 6.312M91.511 357.268l-11.153 3.278M89.382 349.789l-11.247 2.901M87.63 342.234l-11.342 2.525M86.085 334.623 74.65 336.77M84.71 326.973l-11.492 1.771M83.58 318.194l-19.971 2.298M82.826 310.451l-11.587.961M82.242 302.708l-11.606.584M82.053 294.945l-11.605.188M82.053 287.164l-11.624-.169M82.242 279.402l-11.606-.565M82.882 270.547l-20.027-1.714M83.674 262.823l-11.53-1.357M84.653 255.117l-11.492-1.752M86.01 247.468l-11.417-2.129M87.555 239.876l-11.342-2.506M89.307 232.302 78.04 229.42M91.718 223.767l-19.273-5.708M94.055 216.382l-11.021-3.693M96.598 209.034l-10.908-4.032M99.443 201.818l-10.758-4.408M102.514 194.678l-10.607-4.748M105.773 187.632l-10.438-5.106M109.805 179.738l-17.691-9.495M113.629 172.993l-10.041-5.84M117.642 166.324l-9.853-6.161M121.825 159.786l-9.646-6.481M126.309 153.437l-9.439-6.782M130.943 147.22l-9.193-7.103M136.463 140.268l-15.43-12.868M141.55 134.409l-8.666-7.725M146.826 128.7l-8.403-8.007M152.251 123.142l-8.139-8.27M157.884 117.792l-7.875-8.554M163.706 112.648l-7.592-8.798M170.526 106.978l-12.547-15.713M176.63 102.173l-6.952-9.306M182.961 97.67l-6.651-9.533M189.404 93.356l-6.311-9.76M195.961 89.192l-5.991-9.947M202.705 85.311l-5.671-10.136M210.524 81.148l-9.137-17.898M217.495 77.719l-4.936-10.513M224.56 74.516l-4.578-10.664M231.776 71.615 227.537 60.8M239.048 68.902l-3.863-10.965M246.396 66.415l-3.504-11.078M254.912 63.947l-5.313-19.387M262.429 62.025l-2.694-11.304M270.003 60.273l-2.336-11.38M277.633 58.916l-1.941-11.454M285.319 57.748l-1.564-11.51M293.025 56.769 291.838 45.2M301.861 56.09l-1.3-20.064M309.623 55.714l-.377-11.606M317.385 55.525l.019-11.624M325.166 55.714l.377-11.606M332.928 56.09l.754-11.587M340.671 56.675l1.15-11.55M349.47 57.767l2.732-19.914M357.138 58.954l1.959-11.455M364.787 60.31l2.336-11.379M372.361 62.063l2.713-11.305M379.877 64.003l3.071-11.21M387.339 66.113l3.466-11.097M395.741 68.958l6.688-18.953M403.013 71.69l4.22-10.814M410.21 74.591l4.578-10.663M417.275 77.794l4.955-10.512M424.246 81.242l5.275-10.343M431.104 84.86l5.633-10.174M438.791 89.287l10.4-17.22M445.347 93.45l6.33-9.74M451.791 97.784l6.65-9.534M458.121 102.286l6.971-9.307M464.225 107.091l7.273-9.081M470.216 112.046l7.555-8.836M476.848 117.905l13.64-14.771M482.481 123.274l8.158-8.27M487.889 128.832l8.44-7.988M493.163 134.54l8.686-7.724M498.251 140.419l8.93-7.442M503.092 146.504l9.175-7.141M508.405 153.588l16.316-11.738M512.87 159.937l9.665-6.462M517.072 166.475l9.853-6.142M521.065 173.144l10.042-5.821M524.871 179.908l10.249-5.483M528.413 186.822l10.418-5.143M532.163 194.848l18.35-8.215M535.233 201.988l10.758-4.409M538.078 209.204l10.89-4.032M540.603 216.552l11.021-3.674M542.939 223.956l11.135-3.297M545.068 231.416l11.248-2.92M547.083 240.045l19.632-4.314M548.628 247.657l11.418-2.129M549.985 255.306l11.474-1.734M550.946 263.011l11.549-1.356M551.737 270.736l11.568-.98M552.321 278.479l11.606-.603M552.567 287.353l20.083-.302M552.548 295.115l11.605.207M552.34 302.896l11.605.584M551.756 310.639l11.587.961M551.003 318.364l11.53 1.356M550.023 326.069l11.493 1.733M548.496 334.811l19.745 3.73M546.914 342.404l11.342 2.543M545.162 349.977l11.247 2.901M543.052 357.438l11.135 3.278M540.716 364.842l11.04 3.655M538.21 372.19l10.908 4.031M534.969 380.442l18.577 7.649M531.861 387.563l10.588 4.786M528.583 394.591l10.419 5.143M525.041 401.505l10.249 5.482M521.235 408.288l10.061 5.802M517.26 414.957l9.872 6.142M512.493 422.417l16.654 11.248M507.99 428.748l9.402 6.82M503.319 434.965l9.175 7.122M498.495 441.05l8.949 7.423M493.408 446.929l8.685 7.705M488.151 452.637l8.441 7.988M481.954 458.967l14.055 14.356M476.321 464.337l7.856 8.572M470.48 469.461l7.574 8.817M464.527 474.435l7.272 9.062M458.404 479.239l6.99 9.289M452.092 483.742l6.67 9.533M444.726 488.697l10.908 16.881M438.169 492.823l5.972 9.966M431.425 496.704l5.652 10.155M424.567 500.34l5.294 10.325M417.615 503.788l4.955 10.513M410.531 506.991l4.616 10.663M402.316 510.325l7.273 18.728M395.044 513.019l3.843 10.965M387.696 515.506l3.467 11.097M380.217 517.654l3.109 11.191M372.719 519.595l2.712 11.304M365.145 521.347l2.355 11.379M356.422 522.929l3.316 19.82M348.754 524.06l1.526 11.53M341.03 525.039l1.168 11.549M333.286 525.623l.773 11.587M325.524 526.019l.396 11.606M317.762 526.208l.019 11.624" stroke="#fff" stroke-width=".942" stroke-miterlimit="10"/></g></svg>