<svg width="650" height="637" viewBox="0 0 650 637" fill="none" xmlns="http://www.w3.org/2000/svg">
<g opacity="0.5">
<path d="M302.125 131.472H312.442H327.846" stroke="white" stroke-width="1.79948" stroke-miterlimit="10"/>
<path d="M304.201 103.112H312.85H325.776" stroke="white" stroke-width="1.79948" stroke-miterlimit="10"/>
<path d="M308.346 46.4043H313.672H321.632" stroke="white" stroke-width="1.79948" stroke-miterlimit="10"/>
<path d="M310.415 18.0505H314.079H319.556" stroke="white" stroke-width="1.79948" stroke-miterlimit="10"/>
<path d="M314.986 131.472V0.22937" stroke="white" stroke-width="1.79948" stroke-miterlimit="10"/>
<path d="M327.87 462.451H317.553H302.143" stroke="white" stroke-width="1.79948" stroke-miterlimit="10"/>
<path d="M325.794 490.805H317.145H304.219" stroke="white" stroke-width="1.79948" stroke-miterlimit="10"/>
<path d="M321.649 547.518H316.323H308.363" stroke="white" stroke-width="1.79948" stroke-miterlimit="10"/>
<path d="M319.574 575.872H315.909H310.439" stroke="white" stroke-width="1.79948" stroke-miterlimit="10"/>
<path d="M315.009 462.451V593.693" stroke="white" stroke-width="1.79948" stroke-miterlimit="10"/>
<path d="M479.861 277.179V287.49V302.9" stroke="white" stroke-width="1.79948" stroke-miterlimit="10"/>
<path d="M508.215 279.255V287.904V300.83" stroke="white" stroke-width="1.79948" stroke-miterlimit="10"/>
<path d="M564.928 283.399V288.726V296.68" stroke="white" stroke-width="1.79948" stroke-miterlimit="10"/>
<path d="M593.282 285.469V289.134V294.61" stroke="white" stroke-width="1.79948" stroke-miterlimit="10"/>
<path d="M479.861 290.039H611.103" stroke="white" stroke-width="1.79948" stroke-miterlimit="10"/>
<path d="M148.881 302.918V292.606V277.197" stroke="white" stroke-width="1.79948" stroke-miterlimit="10"/>
<path d="M120.522 300.848V292.193V279.273" stroke="white" stroke-width="1.79948" stroke-miterlimit="10"/>
<path d="M63.814 296.703V291.377V283.417" stroke="white" stroke-width="1.79948" stroke-miterlimit="10"/>
<path d="M35.4604 294.628V290.963V285.487" stroke="white" stroke-width="1.79948" stroke-miterlimit="10"/>
<path d="M148.882 290.057H17.6396" stroke="white" stroke-width="1.79948" stroke-miterlimit="10"/>
<circle cx="221.065" cy="221.065" r="220.445" transform="matrix(-1 0 0 1 535.436 69.938)" stroke="#B5B5B5" stroke-width="1.24027"/>
<line y1="-0.371068" x2="264.556" y2="-0.371068" transform="matrix(0 1 1 0 314.554 158.724)" stroke="#B5B5B5" stroke-width="0.742136"/>
<line y1="-0.371068" x2="132.461" y2="-0.371068" transform="matrix(0.999998 0.00182149 0.00182149 -0.999998 182.093 291.186)" stroke="#B5B5B5" stroke-width="0.742136"/>
<line y1="-0.981975" x2="18.7856" y2="-0.981975" transform="matrix(-1 0 0 1 346.768 158.123)" stroke="white" stroke-width="1.96395"/>
<line y1="-0.981975" x2="9.3928" y2="-0.981975" transform="matrix(-1 0 0 1 337.375 171.786)" stroke="white" stroke-width="1.96395"/>
<line y1="-0.981975" x2="9.3928" y2="-0.981975" transform="matrix(-1 0 0 1 337.375 185.448)" stroke="white" stroke-width="1.96395"/>
<line y1="-0.981975" x2="9.3928" y2="-0.981975" transform="matrix(-1 0 0 1 337.375 199.11)" stroke="white" stroke-width="1.96395"/>
<line y1="-0.981975" x2="9.3928" y2="-0.981975" transform="matrix(-1 0 0 1 337.375 212.773)" stroke="white" stroke-width="1.96395"/>
<line y1="-0.981975" x2="18.7856" y2="-0.981975" transform="matrix(-1 0 0 1 346.768 226.435)" stroke="white" stroke-width="1.96395"/>
<line y1="-0.981975" x2="9.3928" y2="-0.981975" transform="matrix(-1 0 0 1 337.375 240.097)" stroke="white" stroke-width="1.96395"/>
<line y1="-0.981975" x2="9.3928" y2="-0.981975" transform="matrix(-1 0 0 1 337.375 253.759)" stroke="white" stroke-width="1.96395"/>
<line y1="-0.981975" x2="9.3928" y2="-0.981975" transform="matrix(-1 0 0 1 337.375 267.422)" stroke="white" stroke-width="1.96395"/>
<line y1="-0.981975" x2="9.3928" y2="-0.981975" transform="matrix(-1 0 0 1 337.375 281.084)" stroke="white" stroke-width="1.96395"/>
<line y1="-0.981975" x2="18.7856" y2="-0.981975" transform="matrix(-1 0 0 1 346.768 294.746)" stroke="white" stroke-width="1.96395"/>
<line y1="-0.981975" x2="18.7856" y2="-0.981975" transform="matrix(-1 0 0 1 346.768 294.746)" stroke="white" stroke-width="1.96395"/>
<line y1="-0.981975" x2="9.3928" y2="-0.981975" transform="matrix(-1 0 0 1 337.375 308.408)" stroke="white" stroke-width="1.96395"/>
<line y1="-0.981975" x2="9.3928" y2="-0.981975" transform="matrix(-1 0 0 1 337.375 322.071)" stroke="white" stroke-width="1.96395"/>
<line y1="-0.981975" x2="9.3928" y2="-0.981975" transform="matrix(-1 0 0 1 337.375 335.733)" stroke="white" stroke-width="1.96395"/>
<line y1="-0.981975" x2="9.3928" y2="-0.981975" transform="matrix(-1 0 0 1 337.375 349.395)" stroke="white" stroke-width="1.96395"/>
<line y1="-0.981975" x2="18.7856" y2="-0.981975" transform="matrix(-1 0 0 1 346.768 363.057)" stroke="white" stroke-width="1.96395"/>
<line y1="-0.981975" x2="9.3928" y2="-0.981975" transform="matrix(-1 0 0 1 337.375 376.72)" stroke="white" stroke-width="1.96395"/>
<line y1="-0.981975" x2="9.3928" y2="-0.981975" transform="matrix(-1 0 0 1 337.375 390.382)" stroke="white" stroke-width="1.96395"/>
<line y1="-0.981975" x2="9.3928" y2="-0.981975" transform="matrix(-1 0 0 1 337.375 404.044)" stroke="white" stroke-width="1.96395"/>
<line y1="-0.981975" x2="9.3928" y2="-0.981975" transform="matrix(-1 0 0 1 337.375 417.707)" stroke="white" stroke-width="1.96395"/>
<line y1="-0.981975" x2="18.7856" y2="-0.981975" transform="matrix(-1 0 0 1 346.768 431.369)" stroke="white" stroke-width="1.96395"/>
<path d="M294.025 398.797L294.025 404.093L289.038 404.052L289.038 398.797C289.038 397.341 288.777 396.208 288.255 395.397C287.733 394.587 286.909 394.017 285.782 393.687C284.656 393.343 283.179 393.172 281.352 393.172L276.674 393.172C275.286 393.172 274.112 393.261 273.15 393.44C272.174 393.618 271.391 393.92 270.801 394.346C270.196 394.772 269.75 395.342 269.461 396.057C269.173 396.771 269.028 397.657 269.028 398.715L269.028 404.197L264.021 404.197L264.021 398.715C264.021 396.984 264.303 395.411 264.866 393.996C265.429 392.581 266.253 391.365 267.339 390.349C268.41 389.332 269.736 388.549 271.316 387.999C272.896 387.45 274.695 387.175 276.715 387.175L281.352 387.175C283.385 387.175 285.184 387.45 286.751 387.999C288.317 388.549 289.642 389.332 290.728 390.349C291.799 391.351 292.617 392.567 293.18 393.996C293.743 395.425 294.025 397.025 294.025 398.797ZM264.021 400.59L294.025 400.59L294.025 406.628L264.021 406.628L264.021 400.59ZM264.021 370.084L264.021 360.46C264.021 358.454 264.364 356.744 265.051 355.329C265.738 353.914 266.755 352.829 268.101 352.073C269.447 351.317 271.11 350.94 273.088 350.94C274.709 350.94 276.097 351.159 277.251 351.599C278.391 352.039 279.346 352.664 280.115 353.474C280.871 354.285 281.475 355.253 281.929 356.38L283.021 358.214L283.021 366.024L278.013 366.045L278.013 360.625C278.013 359.801 277.835 359.121 277.477 358.585C277.106 358.035 276.591 357.63 275.932 357.369C275.259 357.094 274.476 356.957 273.583 356.957C272.635 356.957 271.824 357.08 271.151 357.328C270.464 357.561 269.942 357.939 269.585 358.461C269.214 358.969 269.028 359.636 269.028 360.46L269.028 364.046L294.025 364.046L294.025 370.084L264.021 370.084ZM294.025 356.462L280.651 361.964L280.63 355.638L293.736 350.012L294.025 350.012L294.025 356.462ZM269.379 323.215L294.025 329.665L294.025 336.032L264.021 326.656L264.021 322.679L269.379 323.215ZM294.025 318.125L269.379 324.616L264.021 325.214L264.021 321.175L294.025 311.716L294.025 318.125ZM282.835 317.898L287.843 317.898L287.843 331.437L282.835 331.437L282.835 317.898ZM264.021 290.153L294.025 290.153L294.025 296.191L264.021 296.191L264.021 290.153ZM264.021 275.254L278.92 284.98L286.338 290.936L280.301 292.09L273.871 288.236L264.021 282.59L264.021 275.254ZM294.025 282.219L280.239 288.772L276.323 284.341L294.025 275.109L294.025 282.219ZM264.021 254.123L294.025 254.123L294.025 260.161L264.021 260.161L264.021 254.123ZM264.021 239.224L278.92 248.951L286.338 254.906L280.301 256.06L273.871 252.207L264.021 246.56L264.021 239.224ZM294.025 246.189L280.239 252.743L276.323 248.312L294.025 239.08L294.025 246.189ZM269.379 213.272L294.025 219.722L294.025 226.089L264.021 216.713L264.021 212.736L269.379 213.272ZM294.025 208.182L269.379 214.673L264.021 215.271L264.021 211.232L294.025 201.773L294.025 208.182ZM282.835 207.955L287.843 207.955L287.843 221.494L282.835 221.494L282.835 207.955ZM264.021 186.227L264.021 176.603C264.021 174.598 264.364 172.887 265.051 171.472C265.738 170.057 266.755 168.972 268.101 168.216C269.447 167.461 271.11 167.083 273.088 167.083C274.709 167.083 276.097 167.303 277.251 167.742C278.391 168.182 279.346 168.807 280.115 169.618C280.871 170.428 281.475 171.397 281.929 172.523L283.021 174.357L283.021 182.167L278.013 182.188L278.013 176.768C278.013 175.944 277.835 175.264 277.477 174.728C277.106 174.179 276.591 173.773 275.932 173.512C275.259 173.238 274.476 173.1 273.583 173.1C272.635 173.1 271.824 173.224 271.151 173.471C270.464 173.705 269.942 174.082 269.585 174.604C269.214 175.113 269.028 175.779 269.028 176.603L269.028 180.189L294.025 180.189L294.025 186.227L264.021 186.227ZM294.025 172.606L280.651 178.108L280.63 171.781L293.736 166.156L294.025 166.156L294.025 172.606Z" fill="white"/>
<path d="M308.888 526L308.191 546.084" stroke="white" stroke-width="0.942006" stroke-miterlimit="10"/>
<path d="M301.126 525.605L300.354 537.191" stroke="white" stroke-width="0.942006" stroke-miterlimit="10"/>
<path d="M293.383 525.021L292.215 536.569" stroke="white" stroke-width="0.942006" stroke-miterlimit="10"/>
<path d="M285.677 524.041L284.133 535.552" stroke="white" stroke-width="0.942006" stroke-miterlimit="10"/>
<path d="M277.99 522.891L276.069 534.346" stroke="white" stroke-width="0.942006" stroke-miterlimit="10"/>
<path d="M270.36 521.535L268.043 532.915" stroke="white" stroke-width="0.942006" stroke-miterlimit="10"/>
<path d="M261.713 519.557L256.984 539.094" stroke="white" stroke-width="0.942006" stroke-miterlimit="10"/>
<path d="M254.196 517.598L251.087 528.789" stroke="white" stroke-width="0.942006" stroke-miterlimit="10"/>
<path d="M246.735 515.45L243.268 526.528" stroke="white" stroke-width="0.942006" stroke-miterlimit="10"/>
<path d="M239.387 512.963L235.544 523.928" stroke="white" stroke-width="0.942006" stroke-miterlimit="10"/>
<path d="M232.115 510.25L227.895 521.083" stroke="white" stroke-width="0.942006" stroke-miterlimit="10"/>
<path d="M224.899 507.367L220.34 518.05" stroke="white" stroke-width="0.942006" stroke-miterlimit="10"/>
<path d="M216.817 503.713L208.226 521.893" stroke="white" stroke-width="0.942006" stroke-miterlimit="10"/>
<path d="M209.884 500.246L204.571 510.589" stroke="white" stroke-width="0.942006" stroke-miterlimit="10"/>
<path d="M203.026 496.61L197.374 506.765" stroke="white" stroke-width="0.942006" stroke-miterlimit="10"/>
<path d="M196.281 492.729L190.309 502.695" stroke="white" stroke-width="0.942006" stroke-miterlimit="10"/>
<path d="M189.724 488.584L183.413 498.343" stroke="white" stroke-width="0.942006" stroke-miterlimit="10"/>
<path d="M183.262 484.288L176.63 493.821" stroke="white" stroke-width="0.942006" stroke-miterlimit="10"/>
<path d="M176.046 479.126L163.97 495.178" stroke="white" stroke-width="0.942006" stroke-miterlimit="10"/>
<path d="M169.942 474.322L162.651 483.365" stroke="white" stroke-width="0.942006" stroke-miterlimit="10"/>
<path d="M163.97 469.348L156.396 478.147" stroke="white" stroke-width="0.942006" stroke-miterlimit="10"/>
<path d="M158.148 464.205L150.292 472.758" stroke="white" stroke-width="0.942006" stroke-miterlimit="10"/>
<path d="M152.516 458.854L144.377 467.144" stroke="white" stroke-width="0.942006" stroke-miterlimit="10"/>
<path d="M147.089 453.296L138.687 461.322" stroke="white" stroke-width="0.942006" stroke-miterlimit="10"/>
<path d="M141.079 446.778L126.026 460.116" stroke="white" stroke-width="0.942006" stroke-miterlimit="10"/>
<path d="M135.993 440.919L127.044 448.323" stroke="white" stroke-width="0.942006" stroke-miterlimit="10"/>
<path d="M131.169 434.814L121.975 441.936" stroke="white" stroke-width="0.942006" stroke-miterlimit="10"/>
<path d="M126.516 428.597L117.096 435.417" stroke="white" stroke-width="0.942006" stroke-miterlimit="10"/>
<path d="M122.013 422.267L112.386 428.767" stroke="white" stroke-width="0.942006" stroke-miterlimit="10"/>
<path d="M117.831 415.729L107.977 421.89" stroke="white" stroke-width="0.942006" stroke-miterlimit="10"/>
<path d="M113.271 408.118L95.8628 418.159" stroke="white" stroke-width="0.942006" stroke-miterlimit="10"/>
<path d="M109.485 401.354L99.2356 406.818" stroke="white" stroke-width="0.942006" stroke-miterlimit="10"/>
<path d="M105.942 394.44L95.5046 399.546" stroke="white" stroke-width="0.942006" stroke-miterlimit="10"/>
<path d="M102.665 387.394L92.0764 392.16" stroke="white" stroke-width="0.942006" stroke-miterlimit="10"/>
<path d="M99.5748 380.272L88.8359 384.681" stroke="white" stroke-width="0.942006" stroke-miterlimit="10"/>
<path d="M96.7299 373.056L85.8403 377.107" stroke="white" stroke-width="0.942006" stroke-miterlimit="10"/>
<path d="M93.8287 364.672L74.7437 370.984" stroke="white" stroke-width="0.942006" stroke-miterlimit="10"/>
<path d="M91.5115 357.268L80.3582 360.546" stroke="white" stroke-width="0.942006" stroke-miterlimit="10"/>
<path d="M89.3823 349.789L78.1348 352.69" stroke="white" stroke-width="0.942006" stroke-miterlimit="10"/>
<path d="M87.6301 342.234L76.2883 344.759" stroke="white" stroke-width="0.942006" stroke-miterlimit="10"/>
<path d="M86.0851 334.623L74.6492 336.77" stroke="white" stroke-width="0.942006" stroke-miterlimit="10"/>
<path d="M84.71 326.973L73.2175 328.744" stroke="white" stroke-width="0.942006" stroke-miterlimit="10"/>
<path d="M83.5792 318.194L63.6086 320.492" stroke="white" stroke-width="0.942006" stroke-miterlimit="10"/>
<path d="M82.8257 310.451L71.239 311.412" stroke="white" stroke-width="0.942006" stroke-miterlimit="10"/>
<path d="M82.2415 302.708L70.636 303.292" stroke="white" stroke-width="0.942006" stroke-miterlimit="10"/>
<path d="M82.053 294.945L70.4475 295.133" stroke="white" stroke-width="0.942006" stroke-miterlimit="10"/>
<path d="M82.0533 287.164L70.429 286.995" stroke="white" stroke-width="0.942006" stroke-miterlimit="10"/>
<path d="M82.2415 279.402L70.636 278.837" stroke="white" stroke-width="0.942006" stroke-miterlimit="10"/>
<path d="M82.8825 270.547L62.8555 268.833" stroke="white" stroke-width="0.942006" stroke-miterlimit="10"/>
<path d="M83.6735 262.823L72.1433 261.466" stroke="white" stroke-width="0.942006" stroke-miterlimit="10"/>
<path d="M84.6531 255.117L73.1606 253.365" stroke="white" stroke-width="0.942006" stroke-miterlimit="10"/>
<path d="M86.0099 247.468L74.5928 245.339" stroke="white" stroke-width="0.942006" stroke-miterlimit="10"/>
<path d="M87.5546 239.876L76.2129 237.37" stroke="white" stroke-width="0.942006" stroke-miterlimit="10"/>
<path d="M89.3067 232.302L78.0403 229.42" stroke="white" stroke-width="0.942006" stroke-miterlimit="10"/>
<path d="M91.7182 223.767L72.4448 218.059" stroke="white" stroke-width="0.942006" stroke-miterlimit="10"/>
<path d="M94.0552 216.382L83.0337 212.689" stroke="white" stroke-width="0.942006" stroke-miterlimit="10"/>
<path d="M96.5981 209.034L85.6897 205.002" stroke="white" stroke-width="0.942006" stroke-miterlimit="10"/>
<path d="M99.443 201.818L88.6853 197.41" stroke="white" stroke-width="0.942006" stroke-miterlimit="10"/>
<path d="M102.514 194.678L91.907 189.93" stroke="white" stroke-width="0.942006" stroke-miterlimit="10"/>
<path d="M105.773 187.632L95.3354 182.526" stroke="white" stroke-width="0.942006" stroke-miterlimit="10"/>
<path d="M109.805 179.738L92.114 170.243" stroke="white" stroke-width="0.942006" stroke-miterlimit="10"/>
<path d="M113.629 172.993L103.588 167.153" stroke="white" stroke-width="0.942006" stroke-miterlimit="10"/>
<path d="M117.642 166.324L107.789 160.163" stroke="white" stroke-width="0.942006" stroke-miterlimit="10"/>
<path d="M121.825 159.786L112.179 153.305" stroke="white" stroke-width="0.942006" stroke-miterlimit="10"/>
<path d="M126.309 153.437L116.87 146.655" stroke="white" stroke-width="0.942006" stroke-miterlimit="10"/>
<path d="M130.943 147.22L121.75 140.117" stroke="white" stroke-width="0.942006" stroke-miterlimit="10"/>
<path d="M136.463 140.268L121.033 127.4" stroke="white" stroke-width="0.942006" stroke-miterlimit="10"/>
<path d="M141.55 134.409L132.884 126.684" stroke="white" stroke-width="0.942006" stroke-miterlimit="10"/>
<path d="M146.826 128.7L138.423 120.693" stroke="white" stroke-width="0.942006" stroke-miterlimit="10"/>
<path d="M152.251 123.142L144.112 114.872" stroke="white" stroke-width="0.942006" stroke-miterlimit="10"/>
<path d="M157.884 117.792L150.009 109.238" stroke="white" stroke-width="0.942006" stroke-miterlimit="10"/>
<path d="M163.706 112.648L156.114 103.85" stroke="white" stroke-width="0.942006" stroke-miterlimit="10"/>
<path d="M170.526 106.978L157.979 91.265" stroke="white" stroke-width="0.942006" stroke-miterlimit="10"/>
<path d="M176.63 102.173L169.678 92.8665" stroke="white" stroke-width="0.942006" stroke-miterlimit="10"/>
<path d="M182.961 97.6704L176.31 88.1373" stroke="white" stroke-width="0.942006" stroke-miterlimit="10"/>
<path d="M189.404 93.356L183.093 83.5968" stroke="white" stroke-width="0.942006" stroke-miterlimit="10"/>
<path d="M195.961 89.1923L189.97 79.2448" stroke="white" stroke-width="0.942006" stroke-miterlimit="10"/>
<path d="M202.705 85.3114L197.034 75.1754" stroke="white" stroke-width="0.942006" stroke-miterlimit="10"/>
<path d="M210.524 81.1477L201.387 63.2496" stroke="white" stroke-width="0.942006" stroke-miterlimit="10"/>
<path d="M217.495 77.7187L212.559 67.2059" stroke="white" stroke-width="0.942006" stroke-miterlimit="10"/>
<path d="M224.56 74.5159L219.982 63.8524" stroke="white" stroke-width="0.942006" stroke-miterlimit="10"/>
<path d="M231.776 71.6145L227.537 60.8003" stroke="white" stroke-width="0.942006" stroke-miterlimit="10"/>
<path d="M239.048 68.9016L235.185 57.9366" stroke="white" stroke-width="0.942006" stroke-miterlimit="10"/>
<path d="M246.396 66.4148L242.892 55.3368" stroke="white" stroke-width="0.942006" stroke-miterlimit="10"/>
<path d="M254.912 63.9467L249.599 44.5602" stroke="white" stroke-width="0.942006" stroke-miterlimit="10"/>
<path d="M262.429 62.0253L259.735 50.7212" stroke="white" stroke-width="0.942006" stroke-miterlimit="10"/>
<path d="M270.003 60.2731L267.667 48.8937" stroke="white" stroke-width="0.942006" stroke-miterlimit="10"/>
<path d="M277.633 58.9165L275.692 47.4617" stroke="white" stroke-width="0.942006" stroke-miterlimit="10"/>
<path d="M285.319 57.7484L283.755 46.2371" stroke="white" stroke-width="0.942006" stroke-miterlimit="10"/>
<path d="M293.025 56.7685L291.838 45.2007" stroke="white" stroke-width="0.942006" stroke-miterlimit="10"/>
<path d="M301.861 56.0904L300.561 36.0256" stroke="white" stroke-width="0.942006" stroke-miterlimit="10"/>
<path d="M309.623 55.7135L309.246 44.108" stroke="white" stroke-width="0.942006" stroke-miterlimit="10"/>
<path d="M317.385 55.5252L317.404 43.9009" stroke="white" stroke-width="0.942006" stroke-miterlimit="10"/>
<path d="M325.166 55.7135L325.543 44.108" stroke="white" stroke-width="0.942006" stroke-miterlimit="10"/>
<path d="M332.928 56.0901L333.682 44.5034" stroke="white" stroke-width="0.942006" stroke-miterlimit="10"/>
<path d="M340.671 56.6745L341.821 45.1255" stroke="white" stroke-width="0.942006" stroke-miterlimit="10"/>
<path d="M349.47 57.767L352.202 37.853" stroke="white" stroke-width="0.942006" stroke-miterlimit="10"/>
<path d="M357.138 58.9541L359.097 47.4993" stroke="white" stroke-width="0.942006" stroke-miterlimit="10"/>
<path d="M364.787 60.3105L367.123 48.931" stroke="white" stroke-width="0.942006" stroke-miterlimit="10"/>
<path d="M372.361 62.0626L375.074 50.7585" stroke="white" stroke-width="0.942006" stroke-miterlimit="10"/>
<path d="M379.877 64.0032L382.948 52.7933" stroke="white" stroke-width="0.942006" stroke-miterlimit="10"/>
<path d="M387.339 66.1132L390.805 55.0164" stroke="white" stroke-width="0.942006" stroke-miterlimit="10"/>
<path d="M395.741 68.9583L402.429 50.0051" stroke="white" stroke-width="0.942006" stroke-miterlimit="10"/>
<path d="M403.013 71.6903L407.233 60.8761" stroke="white" stroke-width="0.942006" stroke-miterlimit="10"/>
<path d="M410.21 74.5914L414.788 63.9279" stroke="white" stroke-width="0.942006" stroke-miterlimit="10"/>
<path d="M417.275 77.7944L422.23 67.2816" stroke="white" stroke-width="0.942006" stroke-miterlimit="10"/>
<path d="M424.246 81.2419L429.521 70.8987" stroke="white" stroke-width="0.942006" stroke-miterlimit="10"/>
<path d="M431.104 84.8592L436.737 74.6855" stroke="white" stroke-width="0.942006" stroke-miterlimit="10"/>
<path d="M438.791 89.2866L449.191 72.0668" stroke="white" stroke-width="0.942006" stroke-miterlimit="10"/>
<path d="M445.347 93.4504L451.677 83.7101" stroke="white" stroke-width="0.942006" stroke-miterlimit="10"/>
<path d="M451.791 97.7835L458.441 88.2504" stroke="white" stroke-width="0.942006" stroke-miterlimit="10"/>
<path d="M458.121 102.286L465.092 92.9791" stroke="white" stroke-width="0.942006" stroke-miterlimit="10"/>
<path d="M464.225 107.091L471.498 98.0098" stroke="white" stroke-width="0.942006" stroke-miterlimit="10"/>
<path d="M470.216 112.046L477.771 103.21" stroke="white" stroke-width="0.942006" stroke-miterlimit="10"/>
<path d="M476.848 117.905L490.488 103.134" stroke="white" stroke-width="0.942006" stroke-miterlimit="10"/>
<path d="M482.481 123.274L490.639 115.004" stroke="white" stroke-width="0.942006" stroke-miterlimit="10"/>
<path d="M487.889 128.832L496.329 120.844" stroke="white" stroke-width="0.942006" stroke-miterlimit="10"/>
<path d="M493.163 134.54L501.849 126.816" stroke="white" stroke-width="0.942006" stroke-miterlimit="10"/>
<path d="M498.251 140.419L507.181 132.977" stroke="white" stroke-width="0.942006" stroke-miterlimit="10"/>
<path d="M503.092 146.504L512.267 139.363" stroke="white" stroke-width="0.942006" stroke-miterlimit="10"/>
<path d="M508.405 153.588L524.721 141.85" stroke="white" stroke-width="0.942006" stroke-miterlimit="10"/>
<path d="M512.87 159.937L522.535 153.475" stroke="white" stroke-width="0.942006" stroke-miterlimit="10"/>
<path d="M517.072 166.475L526.925 160.333" stroke="white" stroke-width="0.942006" stroke-miterlimit="10"/>
<path d="M521.065 173.144L531.107 167.323" stroke="white" stroke-width="0.942006" stroke-miterlimit="10"/>
<path d="M524.871 179.908L535.12 174.425" stroke="white" stroke-width="0.942006" stroke-miterlimit="10"/>
<path d="M528.413 186.822L538.831 181.679" stroke="white" stroke-width="0.942006" stroke-miterlimit="10"/>
<path d="M532.163 194.848L550.513 186.633" stroke="white" stroke-width="0.942006" stroke-miterlimit="10"/>
<path d="M535.233 201.988L545.991 197.579" stroke="white" stroke-width="0.942006" stroke-miterlimit="10"/>
<path d="M538.078 209.204L548.968 205.172" stroke="white" stroke-width="0.942006" stroke-miterlimit="10"/>
<path d="M540.603 216.552L551.624 212.878" stroke="white" stroke-width="0.942006" stroke-miterlimit="10"/>
<path d="M542.939 223.956L554.074 220.659" stroke="white" stroke-width="0.942006" stroke-miterlimit="10"/>
<path d="M545.068 231.416L556.316 228.496" stroke="white" stroke-width="0.942006" stroke-miterlimit="10"/>
<path d="M547.083 240.045L566.715 235.731" stroke="white" stroke-width="0.942006" stroke-miterlimit="10"/>
<path d="M548.628 247.657L560.046 245.528" stroke="white" stroke-width="0.942006" stroke-miterlimit="10"/>
<path d="M549.985 255.306L561.459 253.572" stroke="white" stroke-width="0.942006" stroke-miterlimit="10"/>
<path d="M550.946 263.011L562.495 261.655" stroke="white" stroke-width="0.942006" stroke-miterlimit="10"/>
<path d="M551.737 270.736L563.305 269.756" stroke="white" stroke-width="0.942006" stroke-miterlimit="10"/>
<path d="M552.321 278.479L563.927 277.876" stroke="white" stroke-width="0.942006" stroke-miterlimit="10"/>
<path d="M552.567 287.353L572.65 287.051" stroke="white" stroke-width="0.942006" stroke-miterlimit="10"/>
<path d="M552.548 295.115L564.153 295.322" stroke="white" stroke-width="0.942006" stroke-miterlimit="10"/>
<path d="M552.34 302.896L563.945 303.48" stroke="white" stroke-width="0.942006" stroke-miterlimit="10"/>
<path d="M551.756 310.639L563.343 311.6" stroke="white" stroke-width="0.942006" stroke-miterlimit="10"/>
<path d="M551.003 318.364L562.533 319.72" stroke="white" stroke-width="0.942006" stroke-miterlimit="10"/>
<path d="M550.023 326.069L561.516 327.802" stroke="white" stroke-width="0.942006" stroke-miterlimit="10"/>
<path d="M548.496 334.811L568.241 338.541" stroke="white" stroke-width="0.942006" stroke-miterlimit="10"/>
<path d="M546.914 342.404L558.256 344.947" stroke="white" stroke-width="0.942006" stroke-miterlimit="10"/>
<path d="M545.162 349.977L556.409 352.878" stroke="white" stroke-width="0.942006" stroke-miterlimit="10"/>
<path d="M543.052 357.438L554.187 360.716" stroke="white" stroke-width="0.942006" stroke-miterlimit="10"/>
<path d="M540.716 364.842L551.756 368.497" stroke="white" stroke-width="0.942006" stroke-miterlimit="10"/>
<path d="M538.21 372.19L549.118 376.221" stroke="white" stroke-width="0.942006" stroke-miterlimit="10"/>
<path d="M534.969 380.442L553.546 388.091" stroke="white" stroke-width="0.942006" stroke-miterlimit="10"/>
<path d="M531.861 387.563L542.449 392.349" stroke="white" stroke-width="0.942006" stroke-miterlimit="10"/>
<path d="M528.583 394.591L539.002 399.734" stroke="white" stroke-width="0.942006" stroke-miterlimit="10"/>
<path d="M525.041 401.505L535.29 406.987" stroke="white" stroke-width="0.942006" stroke-miterlimit="10"/>
<path d="M521.235 408.288L531.296 414.09" stroke="white" stroke-width="0.942006" stroke-miterlimit="10"/>
<path d="M517.26 414.957L527.132 421.099" stroke="white" stroke-width="0.942006" stroke-miterlimit="10"/>
<path d="M512.493 422.417L529.147 433.665" stroke="white" stroke-width="0.942006" stroke-miterlimit="10"/>
<path d="M507.99 428.748L517.392 435.568" stroke="white" stroke-width="0.942006" stroke-miterlimit="10"/>
<path d="M503.319 434.965L512.494 442.087" stroke="white" stroke-width="0.942006" stroke-miterlimit="10"/>
<path d="M498.495 441.05L507.444 448.473" stroke="white" stroke-width="0.942006" stroke-miterlimit="10"/>
<path d="M493.408 446.929L502.093 454.634" stroke="white" stroke-width="0.942006" stroke-miterlimit="10"/>
<path d="M488.151 452.637L496.592 460.625" stroke="white" stroke-width="0.942006" stroke-miterlimit="10"/>
<path d="M481.954 458.967L496.009 473.323" stroke="white" stroke-width="0.942006" stroke-miterlimit="10"/>
<path d="M476.321 464.337L484.177 472.909" stroke="white" stroke-width="0.942006" stroke-miterlimit="10"/>
<path d="M470.48 469.461L478.054 478.278" stroke="white" stroke-width="0.942006" stroke-miterlimit="10"/>
<path d="M464.527 474.435L471.799 483.497" stroke="white" stroke-width="0.942006" stroke-miterlimit="10"/>
<path d="M458.404 479.239L465.394 488.528" stroke="white" stroke-width="0.942006" stroke-miterlimit="10"/>
<path d="M452.092 483.742L458.762 493.275" stroke="white" stroke-width="0.942006" stroke-miterlimit="10"/>
<path d="M444.726 488.697L455.634 505.578" stroke="white" stroke-width="0.942006" stroke-miterlimit="10"/>
<path d="M438.169 492.823L444.141 502.789" stroke="white" stroke-width="0.942006" stroke-miterlimit="10"/>
<path d="M431.425 496.704L437.077 506.859" stroke="white" stroke-width="0.942006" stroke-miterlimit="10"/>
<path d="M424.567 500.34L429.861 510.665" stroke="white" stroke-width="0.942006" stroke-miterlimit="10"/>
<path d="M417.615 503.788L422.57 514.301" stroke="white" stroke-width="0.942006" stroke-miterlimit="10"/>
<path d="M410.531 506.991L415.147 517.654" stroke="white" stroke-width="0.942006" stroke-miterlimit="10"/>
<path d="M402.316 510.325L409.589 529.053" stroke="white" stroke-width="0.942006" stroke-miterlimit="10"/>
<path d="M395.044 513.019L398.887 523.984" stroke="white" stroke-width="0.942006" stroke-miterlimit="10"/>
<path d="M387.696 515.506L391.163 526.603" stroke="white" stroke-width="0.942006" stroke-miterlimit="10"/>
<path d="M380.217 517.654L383.326 528.845" stroke="white" stroke-width="0.942006" stroke-miterlimit="10"/>
<path d="M372.719 519.595L375.431 530.899" stroke="white" stroke-width="0.942006" stroke-miterlimit="10"/>
<path d="M365.145 521.347L367.5 532.726" stroke="white" stroke-width="0.942006" stroke-miterlimit="10"/>
<path d="M356.422 522.929L359.738 542.749" stroke="white" stroke-width="0.942006" stroke-miterlimit="10"/>
<path d="M348.754 524.06L350.28 535.59" stroke="white" stroke-width="0.942006" stroke-miterlimit="10"/>
<path d="M341.03 525.039L342.198 536.588" stroke="white" stroke-width="0.942006" stroke-miterlimit="10"/>
<path d="M333.286 525.623L334.059 537.21" stroke="white" stroke-width="0.942006" stroke-miterlimit="10"/>
<path d="M325.524 526.019L325.92 537.625" stroke="white" stroke-width="0.942006" stroke-miterlimit="10"/>
<path d="M317.762 526.208L317.781 537.832" stroke="white" stroke-width="0.942006" stroke-miterlimit="10"/>
</g>
</svg>
