<svg width="46" height="60" viewBox="0 0 46 60" fill="none" xmlns="http://www.w3.org/2000/svg">
<g clip-path="url(#clip0_54_1162)">
<path d="M45.3334 48.7719C45.3285 50.203 45.0321 51.5713 44.4694 52.8867C43.8765 54.2729 42.9904 55.4505 41.865 56.4339C40.916 57.2629 39.8116 57.8539 38.6345 58.3114C37.5657 58.7265 36.4532 58.9793 35.329 59.149C34.5855 59.2615 33.8322 59.3673 33.0733 59.3489C32.8519 59.3433 32.6404 59.4614 32.414 59.3999C31.9448 59.2837 31.4682 59.3815 30.9953 59.3501C30.8717 59.3421 30.7321 59.2904 30.6195 59.3993C29.7543 59.331 28.8841 59.3562 28.0188 59.2406C27.6837 59.1957 27.3356 59.1699 26.9918 59.1613C26.6893 59.1539 26.3873 59.1201 26.0853 59.0986C26.0251 59.0943 25.9974 59.0549 25.9783 58.9909C26.4636 58.9571 26.9482 58.9553 27.4303 58.9331C28.5096 58.8839 29.5821 58.7923 30.6571 58.6859C31.6625 58.5869 32.6594 58.4565 33.6434 58.2388C35.6137 57.8022 37.487 57.1208 39.1621 55.9647C40.8054 54.8307 42.0482 53.3627 42.7825 51.4987C43.0857 50.7294 43.2788 49.9213 43.2978 49.0837C43.3919 48.711 43.395 48.3378 43.2991 47.9651C43.2585 45.8459 42.8354 43.7931 42.2186 41.7735C42.1005 41.7127 41.9966 41.8031 41.9055 41.832C41.1793 42.0638 40.5182 41.4089 40.4727 40.7416C40.4524 40.4434 40.4179 40.1365 40.5206 39.837C40.5532 39.7411 40.5446 39.6414 40.4099 39.5676C40.2839 39.4987 40.1971 39.3561 40.0932 39.2466C40.0631 39.1697 39.9831 39.1562 39.9247 39.115C39.8718 38.6858 39.7667 38.2497 39.9229 37.8291C39.9997 37.6212 39.9671 37.5499 39.774 37.4441C39.2661 37.1649 39.0281 36.5776 39.1806 36.0149C39.2439 35.7819 39.2021 35.6416 38.9893 35.5107C38.5379 35.2327 38.3368 34.6386 38.4998 34.1276C38.5662 33.9191 38.581 33.7192 38.4961 33.5114C38.0749 32.4776 37.8898 31.4137 38.1314 30.3074C38.3153 29.4648 38.6702 28.7201 39.4075 28.2048C39.5957 28.0732 39.8368 27.9649 39.7316 27.6273C39.4678 26.7854 39.2544 25.9275 38.9752 25.0912C38.8688 24.772 38.8184 24.4036 38.4783 24.1871C37.9673 23.8618 37.4814 23.4959 36.971 23.1688C36.5005 22.8668 36.0116 22.5925 35.5307 22.3059C36.2269 23.8249 36.7674 25.371 37.1413 26.973C37.5202 28.5971 37.7262 30.2465 37.7649 31.9155C37.7649 32.3497 37.7649 32.7832 37.7655 33.2174C37.7422 33.7832 37.7403 34.3508 37.6905 34.9141C37.6284 35.6189 37.5275 36.32 37.4433 37.0229L37.3431 36.9023C37.2754 36.756 37.3855 36.6317 37.3959 36.4946C37.4556 35.7296 37.5208 34.9646 37.5841 34.1995C37.6881 33.8748 37.6284 33.5397 37.6315 33.2106C37.6339 32.9444 37.6997 32.6695 37.5823 32.4087C37.5589 32.1683 37.5103 31.9272 37.5171 31.688C37.5343 31.0779 37.4685 30.4703 37.3793 29.875C37.2176 28.8001 37.0171 27.7312 36.725 26.6778C36.3265 25.2375 35.7773 23.8655 35.1205 22.5273C34.8924 22.063 34.5794 21.7488 34.1071 21.5409C33.3027 21.1873 32.5094 20.8066 31.6884 20.4936C31.3526 20.3657 31.0205 20.2009 30.6109 20.1646C31.1859 20.8362 31.6564 21.5305 32.0715 22.2623C32.7535 23.4639 33.2781 24.7302 33.6587 26.0585C33.8795 26.8297 34.064 27.6064 34.2208 28.3936C34.3777 29.1795 34.4539 29.9734 34.5628 30.7649C34.6464 31.3731 34.6027 31.9844 34.6316 32.5938C34.7171 33.0421 34.6778 33.4948 34.6747 33.9455C34.5892 33.9898 34.6212 34.0716 34.6243 34.135C34.6538 34.7315 34.5763 35.3231 34.5523 35.9165C34.5179 35.9165 34.4828 35.9165 34.4484 35.9165C34.3856 35.4233 34.5375 34.9387 34.5043 34.4467C34.5972 33.9923 34.6003 33.5372 34.5043 33.0821C34.4828 32.2642 34.3979 31.4518 34.3254 30.6376C34.2405 29.6912 34.0708 28.7607 33.8617 27.8407C33.4736 26.1329 32.8986 24.4866 32.0487 22.9449C31.4639 21.8847 30.7807 20.8983 29.9474 20.0182C29.8361 19.9002 29.7026 19.8424 29.5397 19.7938C28.8939 19.6013 28.2353 19.4623 27.5773 19.3295C27.1536 19.244 26.7292 19.1192 26.2618 19.129C26.8442 19.7052 27.3424 20.319 27.7901 20.9702C28.6848 22.2715 29.3619 23.6859 29.884 25.1711C30.4855 26.8832 30.8723 28.6519 31.1084 30.4482C31.2284 31.3596 31.3218 32.2796 31.3052 33.2039C31.3052 33.7002 31.3052 34.1965 31.3059 34.6927C31.304 34.8053 31.312 34.9184 31.2985 35.0297C31.2677 35.2856 31.379 35.5512 31.2407 35.7985C31.2235 35.7763 31.2056 35.7542 31.1884 35.732C31.1866 35.6103 31.1853 35.4885 31.1835 35.3667C31.2776 34.8108 31.2782 34.2543 31.1841 33.6983C31.1552 33.1436 31.1017 32.5901 31.0636 32.0361C31.0094 31.2427 30.8803 30.4642 30.7567 29.6813C30.5913 28.6334 30.352 27.6039 30.0452 26.5929C29.5606 24.9971 28.9204 23.467 28.0434 22.0403C27.3891 20.9751 26.6136 20.0109 25.7035 19.1548C25.6155 19.0718 25.5128 19.0226 25.3849 19.0011C24.9975 18.9377 24.6076 18.9131 24.2177 18.8769C23.7663 18.835 23.313 18.8252 22.861 18.7717C22.4466 18.7231 22.0216 18.7612 21.5468 18.7612C21.842 19.0275 22.0954 19.2342 22.3236 19.466C23.0751 20.2304 23.7564 21.0557 24.3413 21.9536C25.3461 23.4959 26.1112 25.1496 26.6511 26.9146C27.1117 28.4206 27.4168 29.9562 27.6013 31.5133C27.6984 32.3362 27.7661 33.1694 27.7359 34.0033C27.7359 34.4584 27.7359 34.9141 27.7359 35.3692C27.731 35.7966 27.7267 36.2246 27.7218 36.652C27.6886 36.5912 27.6554 36.5303 27.6222 36.4694C27.6197 36.2664 27.6172 36.0635 27.6148 35.8606C27.7113 35.3649 27.7064 34.8686 27.6148 34.373C27.6031 33.5329 27.5182 32.6996 27.434 31.8639C27.3694 31.2255 27.2907 30.5878 27.1646 29.9636C26.8977 28.6396 26.5743 27.3266 26.0823 26.0616C25.6752 25.0137 25.1943 24.0045 24.6174 23.039C23.7786 21.6344 22.7577 20.3835 21.5419 19.2895C21.1686 18.9537 20.7972 18.7004 20.2351 18.7428C19.4449 18.8024 18.6472 18.752 17.8527 18.8141C17.448 18.8461 17.0366 18.784 16.6369 18.9088C18.4369 19.9893 19.7216 21.2248 20.8347 22.8367C21.8094 24.2486 22.5007 25.8002 23.0037 27.4397C23.417 28.7865 23.6857 30.1647 23.8487 31.5582C23.9575 32.4905 24.0522 33.4296 24.0504 34.373C24.0504 34.9295 24.0504 35.486 24.0504 36.0432C24.0276 36.4571 23.9791 36.8716 23.9901 37.2842C24.0012 37.6926 23.9428 38.0954 23.901 38.4939C23.8776 38.7177 23.9477 38.9748 23.7983 39.1851C23.6814 39.1138 23.7288 38.9951 23.7417 38.9084C23.8247 38.3475 23.8604 37.7848 23.8598 37.2184C23.8598 36.9466 23.8352 36.6723 23.9293 36.4079C24.0369 35.9184 23.9748 35.4252 23.96 34.9332C23.9594 34.9104 23.9003 34.8889 23.8684 34.8674C23.8641 33.8957 23.7927 32.9302 23.6839 31.9635C23.6033 31.2477 23.4994 30.5349 23.3518 29.8351C23.1359 28.8105 22.8715 27.794 22.5093 26.8063C21.8027 24.8796 20.8033 23.1269 19.4153 21.6104C18.5882 20.7064 17.6252 19.9629 16.557 19.3608C16.2673 19.1979 16.0072 18.9488 15.6493 18.9445C15.0041 18.9365 14.3597 18.9457 13.7145 18.9476C12.995 18.9439 12.2755 18.9408 11.556 18.9371C11.5056 18.9371 11.4539 18.9371 11.4281 18.9937C11.0117 19.0029 10.6009 18.9015 10.1828 18.939C10.0936 18.947 10.0013 18.9285 9.91093 18.9199C9.52781 18.883 9.14775 18.8037 8.70313 18.8227C8.79291 18.8775 8.83043 18.9107 8.87409 18.9248C10.5585 19.4734 12.1211 20.2618 13.5774 21.2728C14.9802 22.2463 16.2507 23.3551 17.3355 24.6797C18.341 25.9078 19.0937 27.2743 19.6177 28.7632C20.2136 30.4556 20.4928 32.2101 20.5414 34.0027C20.5414 34.5599 20.5414 35.1165 20.5414 35.6736C20.4971 36.387 20.438 37.0979 20.363 37.8094C20.2585 38.8038 20.0623 39.7786 19.8348 40.7459C19.5316 42.0361 19.1116 43.2919 18.6103 44.5194C17.8109 46.4793 16.7107 48.2732 15.5521 50.0326C14.8307 51.1279 14.0645 52.1924 13.2299 53.204C12.8905 53.6155 12.6039 54.0933 12.1088 54.359C11.821 54.5773 11.6575 54.8645 11.6292 55.2261C11.5412 55.4887 11.377 55.3146 11.2756 55.2642C10.7233 54.9893 10.39 54.5238 10.2098 53.9463C10.0284 53.3652 10.2289 52.8584 10.5923 52.4224C10.8309 52.1365 11.12 51.8849 11.4152 51.6549C11.8659 51.3038 11.8752 50.8192 11.786 50.3536C11.607 49.422 11.3266 48.5093 11.155 47.5764C10.9804 46.6281 10.858 45.6688 11.1895 44.715C11.4047 44.0951 11.8684 43.7052 12.3856 43.3719C12.7091 43.1634 12.8548 42.918 12.7939 42.5343C12.7749 42.4119 12.7128 42.2212 12.9317 42.1899C13.1371 42.1604 13.3283 42.1628 13.4052 42.4346C13.5005 42.7729 13.4876 43.0705 13.3093 43.4069C14.1493 43.4586 14.5312 43.1037 14.5017 42.2821C14.4476 42.2957 14.3861 42.295 14.3467 42.3246C14.2114 42.4254 14.0835 42.3738 13.9876 42.287C13.899 42.2071 13.848 42.0749 13.9138 41.9556C13.9784 41.8369 14.0288 41.7053 14.2133 41.6893C14.7348 41.6444 15.0195 41.9384 15.073 42.4605C15.1733 43.4297 14.3793 43.9948 13.5952 43.9819C13.7287 44.1024 13.8492 44.215 13.9741 44.3238C14.3467 44.6492 14.364 45.0784 14.3154 45.5206C14.2914 45.7413 14.1057 45.6848 13.9618 45.6915C13.8093 45.6989 13.7275 45.6645 13.7041 45.4788C13.6291 44.8718 12.9778 44.4665 12.4403 44.7199C11.9932 44.9308 11.8389 45.3748 11.8087 45.8385C11.7522 46.7118 12.024 47.5371 12.2484 48.363C12.4379 49.0597 12.6974 49.7356 12.9594 50.4102C13.0774 50.7134 13.2601 50.9157 13.5485 51.0461C13.7674 51.1457 14.0036 51.1709 14.2336 51.222C14.4611 51.2724 14.605 51.1765 14.7495 50.9705C15.7132 49.6021 16.5637 48.168 17.3017 46.6675C18.2248 44.7912 18.9375 42.835 19.4104 40.7976C19.6152 39.9145 19.7751 39.0203 19.8723 38.1138C19.9399 37.4835 19.9479 36.8482 20.0549 36.2222C20.1404 35.6871 20.141 35.1527 20.0549 34.6177C19.9264 32.8214 19.7075 31.0367 19.1115 29.3283C18.6116 27.8948 17.9339 26.5431 17.0372 25.3082C16.4407 24.486 15.7975 23.7038 15.0497 23.0169C13.3031 21.4118 11.3149 20.2052 9.06842 19.4297C7.24256 18.7994 5.35398 18.399 3.49369 17.8947C2.59521 17.6512 1.69243 17.4249 0.792725 17.1875C0.612538 17.1402 0.421281 17.1383 0.252779 17.0381C0.116869 16.9569 0.0209334 16.8321 0.0781259 16.6998C0.138393 16.5602 0.257698 16.4305 0.466174 16.4895C1.5762 16.8056 2.68254 17.1377 3.80117 17.42C4.71502 17.6506 5.63257 17.8701 6.56487 18.0306C7.32436 18.161 8.08938 18.2471 8.84764 18.38C9.06412 18.4181 9.29473 18.4298 9.50813 18.4298C9.98719 18.4304 10.4589 18.5485 10.9373 18.4986C11.4742 18.4888 12.0135 18.5724 12.5467 18.4525C12.8431 18.4494 13.1395 18.4371 13.4353 18.4458C14.308 18.471 15.172 18.3381 16.0428 18.3117C16.6966 18.292 17.3546 18.2496 18.0058 18.1887C18.849 18.11 19.6982 18.1358 20.5377 18.019C20.617 18.0079 20.7 18.0251 20.7818 18.0294C21.1311 18.1204 21.4804 18.1008 21.8291 18.0257H22.9453V17.2207C23.0714 16.7736 22.9607 16.3192 22.9896 15.869C22.9834 15.2928 23.0474 14.7141 22.9441 14.1403C22.9379 13.9774 22.9318 13.8138 22.9256 13.6508C22.9287 13.2781 22.941 12.9048 22.9299 12.5328C22.9238 12.3292 22.9914 12.1165 22.8764 11.9215C22.8973 11.6386 22.8143 11.3496 22.9268 11.0716C22.9213 10.7395 22.9871 10.4044 22.8795 10.0772C22.8807 9.83367 22.882 9.59076 22.8832 9.34723C22.9988 9.00407 22.9041 8.65169 22.9275 8.30485C22.9164 7.89158 22.9908 7.47525 22.882 7.06629L22.8635 7.07244C22.8567 6.76126 22.9312 6.44578 22.8137 6.14014C22.8131 5.66538 22.8137 5.19062 22.81 4.71525C22.8094 4.61501 22.8088 4.51723 22.8647 4.42867C22.8567 4.11749 22.9275 3.80201 22.8174 3.49576V2.83343C22.9988 2.85311 23.1286 2.96995 23.2989 3.03268C23.2792 3.74543 23.4108 4.46249 23.3641 5.1857C23.321 5.85971 23.4416 6.52757 23.4287 7.20035C23.4244 7.4322 23.5615 7.50661 23.8333 7.42051C24.2773 7.2803 24.6439 7.01832 24.9021 6.63335C25.3013 6.03867 25.4624 5.34498 25.6395 4.66666C25.8676 3.79217 26.0847 2.9226 26.6136 2.16372C27.1689 1.36795 27.8989 0.872279 28.8681 0.73145C30.1958 0.538349 31.4442 0.725916 32.5358 1.54383C33.3716 2.17049 33.9379 2.99209 34.128 4.04431C34.377 5.42677 33.9902 6.68439 33.39 7.90388C32.8685 8.96287 32.2787 9.99295 32.0198 11.1632C31.8606 11.8846 31.8114 12.5955 31.9528 13.3353C32.0856 14.0284 32.2603 14.6895 32.6508 15.2836C33.0186 15.8432 33.4761 16.2964 34.1882 16.2823C34.8057 16.2706 35.2743 15.9053 35.6537 15.4422C36.0553 14.9527 36.3769 14.3974 36.8517 13.9681C37.3498 13.518 38.0755 13.3187 38.7003 13.7867C38.9604 13.9811 39.0834 14.2965 39.2323 14.5825C39.3712 14.85 39.4967 15.1403 39.7667 15.2977C40.0957 15.489 40.445 15.5123 40.7943 15.3174C41.1276 15.1317 41.2838 14.858 41.2617 14.4767C41.258 14.4115 41.234 14.3353 41.2955 14.2775C41.6085 14.5727 41.6626 14.9982 41.4572 15.473C41.1122 16.2718 40.1787 16.452 39.3866 15.9299C38.8946 15.6058 38.7064 15.0806 38.4506 14.6009C38.1856 14.104 37.8787 13.887 37.4304 13.9632C37.0657 14.0253 36.8443 14.3045 36.6506 14.585C36.4071 14.9379 36.2133 15.326 35.9637 15.6741C35.1544 16.8032 33.7258 17.0436 32.625 16.4065C31.5955 15.8106 31.0802 14.8396 30.8096 13.7252C30.4947 12.4295 30.7616 11.1952 31.2339 9.98065C31.7511 8.65046 32.5592 7.47217 33.1772 6.1961C33.7012 5.11498 33.7842 4.02894 33.0825 2.97057C32.5364 2.14712 31.7886 1.70926 30.7905 1.64899C29.8545 1.59241 29.0428 1.85685 28.3626 2.48228C27.9444 2.86664 27.6904 3.37153 27.485 3.90471C27.1935 4.66051 27.0804 5.45875 26.8774 6.23546C26.6708 7.02447 26.3898 7.77966 25.8197 8.3768C25.1936 9.03236 24.4212 9.4487 23.4877 9.6215C23.5191 10.0717 23.4231 10.5372 23.5412 11.0009C23.5633 11.0876 23.5467 11.1848 23.548 11.277C23.5689 12.7382 23.5535 14.2006 23.6267 15.6593C23.6624 16.3733 23.6513 17.0848 23.6667 17.7976C23.671 18.0091 23.7312 18.0694 23.9465 18.0842C24.9673 18.1543 25.982 18.2705 26.9955 18.4328C28.3521 18.6499 29.686 18.9537 30.9855 19.3824C32.8187 19.9869 34.5714 20.7796 36.2207 21.7961C37.0878 22.3305 37.942 22.8853 38.7304 23.5273C39.6135 24.2468 40.4487 25.0241 41.1842 25.9011C41.3859 26.1415 41.6042 26.3685 41.8324 26.6218C42.6497 26.0468 43.339 25.3734 43.6102 24.3673C43.7542 23.8329 43.8618 23.2973 43.7277 22.7364C43.6797 22.5353 43.7099 22.3158 43.7867 22.111C43.9005 21.8072 44.0795 21.7002 44.4601 21.7734C44.7258 21.8244 44.834 22.0304 44.8248 22.29C44.7799 23.5937 44.398 24.7634 43.5555 25.7916C43.0119 26.4552 42.2788 26.8537 41.6263 27.3659C41.1381 27.7497 40.7316 28.2048 40.5329 28.8111C40.5206 28.8486 40.5212 28.8917 40.5225 28.9317C40.5231 28.96 40.5354 28.9882 40.5458 29.0313C40.7586 28.9593 40.7795 28.7367 40.905 28.6045C41.4566 28.024 42.0599 27.5031 42.7241 27.0578C43.7597 26.3642 44.5376 25.4657 44.9208 24.2702C45.2559 23.2253 45.3654 22.1516 45.1833 21.06C45.179 21.0342 45.1471 21.0127 45.1274 20.9893C45.0653 20.9776 45.0456 21.0342 45.0081 21.0606C44.9091 21.1295 44.8402 21.076 44.7689 21.0065C44.7018 20.9413 44.6871 20.878 44.724 20.7894C44.7645 20.6929 44.8211 20.6523 44.9287 20.6584C45.1993 20.6738 45.2854 20.8731 45.3125 21.0809C45.3832 21.6258 45.4613 22.1633 45.3974 22.7278C45.3254 23.3655 45.2369 23.9861 45.0161 24.59C44.7061 25.4374 44.2295 26.1489 43.5321 26.7405C42.9547 27.23 42.3176 27.6439 41.7709 28.1703C41.4486 28.4809 41.2143 28.8443 41.0089 29.2853C41.3084 29.1758 41.4418 28.92 41.6552 28.7656C42.3772 28.2429 43.0992 27.7153 43.7751 27.1366C44.4995 26.5167 45.1415 25.815 45.3537 24.8341C45.3955 24.6398 45.398 24.4362 45.4466 24.2443C45.4884 24.0801 45.5542 23.8926 45.7805 23.9246C45.992 23.9541 46.008 24.1238 45.9945 24.2978C45.9268 25.1588 45.6108 25.922 45.0733 26.5917C44.4983 27.3081 43.82 27.92 43.1017 28.4864C43.7185 29.463 44.1951 30.4845 44.5505 31.5582C44.8691 32.5194 45.1114 33.5015 45.2608 34.507C45.3734 35.2634 45.4835 36.0162 45.5191 36.783C45.532 37.0622 45.54 37.3476 45.5695 37.6286C45.5695 38.0425 45.5695 38.4564 45.5695 38.8703C45.5179 40.1353 45.4324 41.3947 45.1434 42.6351C45.0628 42.9813 45.0062 43.3368 44.8992 43.6763C44.7535 44.1381 44.9534 44.5581 45.029 44.9898C45.1206 45.5132 45.1926 46.0384 45.267 46.5642C45.3248 46.9719 45.2897 47.3759 45.3273 47.78C45.425 48.109 45.3863 48.438 45.3273 48.7664L45.3334 48.7719ZM43.3618 34.6915C43.4411 34.1762 43.467 33.6608 43.3618 33.1461C43.2855 31.68 43.1761 30.2176 42.844 28.7785C42.5531 28.8573 42.4344 29.0946 42.2438 29.2416C41.381 29.9058 40.806 30.7514 40.7168 31.8565C40.6393 32.8201 40.7974 33.7586 41.1934 34.6454C41.9375 36.3113 42.7597 37.9429 43.4184 39.647C43.7591 40.5276 44.1047 41.407 44.3464 42.3233C44.4534 42.7298 44.5997 43.1265 44.7344 43.5459C44.9632 42.9611 45.3027 40.6666 45.3266 38.8155C45.4459 38.4668 45.3598 38.1181 45.39 37.7276C45.2153 37.8205 45.294 37.9312 45.2528 38.0037C45.0825 38.4828 44.9607 38.9816 44.6914 39.425C44.8433 38.7442 45.021 38.0726 45.1114 37.3839C45.171 36.9269 45.2578 36.4675 45.2516 36.0106C45.2455 35.5549 45.1587 35.0968 45.0733 34.646C44.7996 33.2033 44.4134 31.7938 43.7855 30.4593C43.6945 30.2649 43.6348 30.0485 43.4436 29.8664C43.5321 30.5773 43.4928 31.255 43.6096 31.9198L43.6109 33.5827C43.5494 33.6559 43.534 33.7408 43.5389 33.8355C43.5623 34.2905 43.5432 34.7469 43.47 35.1946C43.4344 35.4135 43.4485 35.6478 43.3538 35.8581C43.2234 35.4627 43.3809 35.0802 43.3618 34.6927V34.6915ZM39.3602 24.9159C39.6351 25.8193 39.8706 26.6587 40.036 27.5166C40.0606 27.6427 40.0944 27.7232 40.2543 27.6212C40.6504 27.3678 41.0581 27.1329 41.4831 26.8777C40.79 26.203 40.1867 25.4866 39.3608 24.9159H39.3602ZM42.09 41.3467C41.9012 40.8388 41.7161 40.3456 41.5359 39.8499C41.4566 39.6328 41.2777 39.7632 41.1467 39.7343C41.0501 39.7128 40.9419 39.7128 40.897 39.8456C40.7611 40.2441 40.8213 40.6223 41.0556 40.9562C41.2893 41.2883 41.5974 41.506 42.09 41.3467ZM41.3471 39.4047C41.1165 38.8149 40.8804 38.2442 40.5901 37.6993C40.5188 37.5659 40.3804 37.6298 40.3503 37.7535C40.2408 38.203 40.2445 38.6415 40.5206 39.0467C40.7162 39.3339 40.9689 39.4662 41.3465 39.4047H41.3471ZM39.6793 35.8249C39.4493 36.2154 39.4426 36.4983 39.6664 36.8445C39.8195 37.0807 40.0286 37.2516 40.3902 37.2596C40.1461 36.767 39.9216 36.3138 39.6787 35.8249H39.6793ZM38.8571 34.3268C38.7636 34.7788 38.9364 35.1011 39.3436 35.2438C39.1775 34.9307 39.033 34.6589 38.8571 34.3268Z" fill="white"/>
<path d="M42.2547 47.9122C36.5527 54.5385 29.3385 58.0531 20.6022 58.435C19.9048 58.435 19.2074 58.435 18.51 58.435C17.9203 58.4331 17.3299 58.427 16.7438 58.363C14.8343 58.1558 12.9328 57.911 11.1924 57.0113C10.1697 56.4824 9.57998 55.6461 9.54432 54.4875C9.52956 54.0158 9.70605 53.5595 9.99632 53.1622C9.8721 53.8018 9.95819 54.4063 10.3216 54.937C10.634 55.3927 10.9932 55.8238 11.6229 55.8429C11.6881 56.1196 11.7748 56.3884 11.9304 56.6307C11.9163 56.643 11.888 56.6633 11.8892 56.6657C12.0516 56.9234 12.2748 57.0648 12.589 57.0144C12.8449 56.9732 13.0251 56.8361 13.1001 56.579C13.2176 56.3951 13.2698 56.1848 13.3455 55.9837L13.3719 55.9739H13.4002C13.383 56.1707 13.466 56.3502 13.538 56.5163C13.755 57.0144 14.0656 57.4621 14.6412 57.5562C15.2697 57.6583 15.7033 57.3108 16.0317 56.8072C16.1786 56.5815 16.1866 56.2949 16.3582 56.0815C16.4603 56.3361 16.547 56.5987 16.6676 56.8441C17.0162 57.5537 17.7444 57.9104 18.2616 57.8003C19.0586 57.63 19.5143 57.079 19.759 56.3152C19.8101 56.1559 19.6828 55.9241 19.9251 55.8318C19.9663 55.897 20.0259 55.9579 20.0462 56.0292C20.1723 56.4751 20.4527 56.8164 20.7928 57.1073C21.2128 57.467 21.706 57.55 22.2232 57.368C22.9938 57.0962 23.3517 56.4806 23.5651 55.7328C23.6493 55.4388 23.5319 55.132 23.6764 54.854C23.867 55.4155 24.118 55.9284 24.5706 56.3459C25.3805 57.0931 26.5022 56.7198 27.0212 56.0649C27.5089 55.4493 27.6319 54.7636 27.635 54.0226C27.635 54.0176 27.6516 54.0121 27.6879 53.9912C27.7654 54.1652 27.8349 54.3417 27.9203 54.5096C28.2174 55.0963 28.646 55.5538 29.2751 55.7765C29.8249 55.9714 30.403 55.8638 30.7892 55.4923C31.8156 54.5065 33.1402 53.9857 34.2515 53.1395C35.1026 52.4913 35.966 51.8609 36.7993 51.1869C38.02 50.1999 39.1448 49.1114 40.2321 47.986C40.903 47.2911 41.5358 46.5549 42.0733 45.7456C42.0869 45.7253 42.1133 45.7143 42.1625 45.678C42.2258 46.0254 42.1281 46.3649 42.2578 46.6767C42.2566 47.0887 42.2554 47.5001 42.2547 47.9122Z" fill="white"/>
<path d="M36.2232 42.1818C37.0921 42.4819 37.9211 42.87 38.7304 43.3035C39.0797 43.6159 39.5133 43.8219 39.8275 44.1688C39.7334 44.2524 39.6394 44.3361 39.5133 44.4486C39.1806 44.2789 38.8467 43.9978 38.4758 43.7758C37.5411 43.2174 36.5356 42.8607 35.4815 42.6234C34.826 42.4758 34.1673 42.3417 33.4878 42.3737C33.4318 42.3761 33.3629 42.3964 33.3273 42.3233C32.9405 42.1935 32.5518 42.2279 32.1619 42.3054C31.1398 42.354 30.1251 42.4887 29.1418 42.7556C27.5441 43.1885 26.0275 43.8367 24.5744 44.6319C24.4427 44.7038 24.4132 44.7795 24.412 44.9129C24.4046 46.1681 24.4803 47.422 24.4956 48.6772C24.5024 49.2128 24.5375 49.754 24.5295 50.2915C24.5221 50.7816 24.6149 51.2637 24.5996 51.752C24.5965 51.8516 24.61 51.9464 24.5209 52.0318C23.8923 52.6327 23.658 53.3885 23.674 54.2384C23.4981 53.8269 23.0996 53.4807 23.3007 52.9598C23.2995 52.6517 23.2989 52.343 23.2977 52.0349C23.2983 51.728 23.2989 51.4218 23.2995 51.1149C23.2946 50.559 23.3592 50.0012 23.2552 49.4477C23.2491 49.2848 23.2423 49.1212 23.2362 48.9582C23.2362 48.5486 23.2362 48.1391 23.2362 47.7289C23.23 47.3974 23.305 47.0629 23.1894 46.7363V45.4621C20.411 47.2277 17.9413 49.2854 15.5834 51.554C17.0446 52.4131 18.5015 53.2052 20.1957 53.5176C20.0033 53.9567 19.8415 54.3829 19.8594 54.8503C19.7819 54.8244 19.7616 54.7482 19.748 54.6885C19.6527 54.2722 19.4012 53.9629 19.1257 53.648C18.6872 53.1462 17.6116 53.1056 17.1141 53.6345C16.7279 54.0453 16.5157 54.5317 16.3583 55.0557C16.2009 55.0181 16.223 54.8589 16.188 54.7611C15.966 54.1393 15.4272 53.6972 14.6942 53.7476C14.0522 53.7913 13.4759 54.5698 13.463 55.1639C13.4255 55.1866 13.388 55.21 13.3505 55.2328C13.2275 55.0348 13.2158 54.7795 13.0307 54.6135C13.0651 54.4241 12.8579 54.4198 12.7804 54.2974C15.7034 50.9255 18.964 47.9337 22.6329 45.392C23.9022 44.5581 25.1906 43.7568 26.5656 43.1043C27.6972 42.6092 28.8527 42.1849 30.0661 41.9334C30.1097 41.9334 30.1534 41.9334 30.1971 41.9334C30.8219 41.787 31.4547 41.704 32.0967 41.6929C32.4472 41.6929 32.7978 41.6929 33.1477 41.6923C33.2301 41.6911 33.3125 41.6898 33.3955 41.6886C33.9502 41.7931 34.5148 41.8245 35.0713 41.934C35.4569 42.0102 35.8302 42.1406 36.2219 42.1843L36.2232 42.1818Z" fill="white"/>
<path d="M24.179 58.6711C24.3696 58.542 24.6002 58.5863 24.805 58.5617C25.7564 58.4491 26.6954 58.2825 27.6326 58.0814C29.1498 57.7554 30.619 57.2776 32.0488 56.694C33.3537 56.1614 34.6138 55.5237 35.8259 54.7962C36.7748 54.2273 37.6985 53.6197 38.5706 52.9402C39.6191 52.1223 40.635 51.2644 41.4929 50.238C41.6374 50.0652 41.801 49.909 42.0076 49.6901C41.9345 50.2466 41.7973 50.7054 41.6393 51.1592C41.1547 52.5503 40.3245 53.7132 39.244 54.6935C38.2711 55.5766 37.1512 56.2475 35.9471 56.7678C34.893 57.2229 33.8033 57.5722 32.6822 57.8268C31.8686 58.0119 31.0519 58.1798 30.2266 58.304C29.2839 58.4461 28.3368 58.5438 27.3867 58.6256C26.867 58.6705 26.3498 58.6379 25.8332 58.6791C25.2822 58.6767 24.7306 58.6736 24.1796 58.6711H24.179Z" fill="white"/>
<path d="M41.6042 42.2717C41.7905 42.9261 41.8588 43.5939 42.0014 44.2464C42.0353 44.4002 41.9818 44.5391 41.8889 44.6714C41.3877 45.3896 40.8545 46.0809 40.266 46.7321C39.7267 47.3287 39.2089 47.9461 38.6166 48.4916C37.768 49.2732 36.9205 50.0548 36.0294 50.7916C34.8266 51.786 33.556 52.6789 32.2443 53.5177C32.1563 53.5737 32.0666 53.658 31.9417 53.6198C31.9792 53.1906 32.0315 52.7626 31.9208 52.3364C31.8968 52.2429 31.9325 52.1851 32.0278 52.1224C32.8937 51.5511 33.7417 50.9539 34.5523 50.3051C34.9852 49.9589 35.4169 49.6108 35.837 49.2492C36.6044 48.5887 37.3037 47.8569 38.0084 47.1319C38.7753 46.3435 39.4628 45.4856 40.1012 44.5889C40.6178 43.8633 41.1079 43.1222 41.5304 42.3369C41.5433 42.3129 41.5734 42.2982 41.6042 42.2723V42.2717Z" fill="white"/>
<path d="M29.7869 55.5342C29.0133 55.6271 28.3571 54.9863 28.0453 54.2815C27.5527 53.1666 27.664 52.0934 28.3553 51.0966C28.9831 50.1913 30.2168 50.1194 30.9314 50.8266C31.6595 51.5473 31.868 52.4144 31.7413 53.4113C31.6595 54.0552 31.4135 54.5951 30.9584 55.0484C30.6319 55.3737 30.2568 55.5803 29.7869 55.5336V55.5342ZM28.1646 52.9593C28.1277 53.725 28.3903 54.3682 28.9616 54.8866C29.2851 55.1806 29.8613 55.2704 30.2537 55.0797C31.0162 54.7083 31.566 53.6339 31.4264 52.7963C31.336 52.2533 31.237 51.7183 30.8687 51.2731C30.4253 50.738 29.4856 50.4748 28.8847 51.0886C28.3694 51.6156 28.1265 52.2263 28.1652 52.9593H28.1646Z" fill="white"/>
<path d="M25.5987 51.8474C26.3699 51.7927 26.8213 52.2041 27.1497 52.7815C27.6632 53.6862 27.6202 55.0237 26.9289 55.8705C26.2217 56.7364 25.0231 56.8416 24.3048 55.7389C23.6314 54.7058 23.6296 53.6074 24.3085 52.5731C24.6013 52.1272 25.0102 51.7441 25.5987 51.848V51.8474ZM27.1245 54.0742C27.146 53.72 27.0359 53.3049 26.8158 52.9094C26.2863 51.9575 25.1258 51.8375 24.5213 52.8898C24.0238 53.755 24.0398 54.6603 24.5613 55.4997C25.1603 56.464 26.2199 56.3244 26.7371 55.5298C27.0101 55.1104 27.1208 54.6609 27.1245 54.0748V54.0742Z" fill="white"/>
<path d="M13.0319 54.6112C13.2164 54.7772 13.2287 55.0325 13.3517 55.2305C13.2441 55.4808 13.2527 55.7317 13.3456 55.9838C13.2699 56.1849 13.2177 56.3952 13.1002 56.5791C13.0701 56.5816 13.027 56.5711 13.011 56.5871C12.6014 56.9991 12.3635 57.0102 11.9305 56.6308C11.7755 56.3891 11.6888 56.1203 11.623 55.843C11.58 55.6314 11.6999 55.4365 11.6858 55.228C11.8235 54.9445 11.8887 54.6161 12.1863 54.4335C12.5252 54.2213 12.7656 54.4784 13.0319 54.6106V54.6112ZM13.0965 55.6142C13.126 55.2748 13.0707 54.9476 12.7847 54.6955C12.5307 54.471 12.2804 54.5054 12.0849 54.7852C11.6956 55.3412 11.7325 55.9026 12.0566 56.466C12.2036 56.7218 12.4895 56.7796 12.73 56.6142C13.0811 56.3731 13.1125 56.0097 13.0965 55.6142Z" fill="white"/>
<path d="M24.1791 58.6712C24.7301 58.6736 25.2817 58.6767 25.8327 58.6792C25.3918 58.7973 24.9435 58.7228 24.4982 58.7284C24.2615 58.7314 24.0155 58.7714 23.7566 58.6632C23.922 58.5808 24.0518 58.5931 24.1785 58.6706L24.1791 58.6712Z" fill="#949494"/>
<path d="M18.5101 58.4351C19.2075 58.4351 19.9049 58.4351 20.6023 58.4351C20.1706 58.5513 19.7302 58.4738 19.2948 58.483C19.0341 58.4886 18.7653 58.5427 18.5101 58.4351Z" fill="#DBDBDB"/>
<path d="M30.6201 59.3993C30.7327 59.2899 30.8723 59.3421 30.9959 59.3501C31.4682 59.3815 31.9454 59.2837 32.4146 59.4C31.8169 59.4 31.2185 59.4 30.6207 59.4L30.6201 59.3993Z" fill="white"/>
<path d="M22.8807 11.9269C22.9957 12.1218 22.9281 12.3346 22.9342 12.5382C22.9453 12.9102 22.9324 13.2835 22.9299 13.6562C22.8223 13.0824 22.8961 12.5031 22.8813 11.9269H22.8807Z" fill="#CFCFCF"/>
<path d="M22.9479 14.1458C23.0506 14.7195 22.9866 15.2976 22.9934 15.8744C22.9786 15.8708 22.9645 15.8683 22.9491 15.8664C22.9491 15.2933 22.9485 14.7195 22.9479 14.1464V14.1458Z" fill="white"/>
<path d="M39.7887 40.0485C39.7278 39.7822 39.8557 39.5406 39.8889 39.286C39.8963 39.2281 39.9129 39.1722 39.9252 39.115C39.983 39.1562 40.0629 39.1697 40.0937 39.2466C39.8932 39.3167 39.9811 39.5147 39.9295 39.6476C39.8791 39.7773 39.8662 39.9243 39.7887 40.0479V40.0485Z" fill="white"/>
<path d="M12.1862 54.4341C11.8885 54.6168 11.8233 54.9452 11.6856 55.2287L11.6591 55.2318L11.6327 55.2299C11.661 54.8683 11.8246 54.5811 12.1124 54.3628L12.1856 54.4335L12.1862 54.4341Z" fill="#DADADA"/>
<path d="M22.8862 7.07178C22.9951 7.48135 22.9207 7.89769 22.9317 8.31034C22.917 8.30726 22.9016 8.3048 22.8869 8.30234C22.8561 7.99609 22.9164 7.68491 22.8192 7.3805C22.7866 7.27903 22.8032 7.16095 22.8862 7.07117V7.07178Z" fill="white"/>
<path d="M20.0579 34.6232C20.1446 35.1582 20.144 35.6926 20.0579 36.2276C20.0579 35.6926 20.0579 35.1582 20.0579 34.6232Z" fill="white"/>
<path d="M12.5504 18.4574C12.0166 18.5773 11.4773 18.4943 10.941 18.5035C11.1581 18.3799 11.3906 18.4691 11.6144 18.4592C11.9256 18.4451 12.238 18.4568 12.5504 18.4574Z" fill="#8E8E8E"/>
<path d="M22.949 15.8667C22.9637 15.8685 22.9785 15.8716 22.9933 15.8747C22.9643 16.3249 23.075 16.7793 22.949 17.2264C22.949 16.7732 22.949 16.3199 22.949 15.8667Z" fill="white"/>
<path d="M42.2549 47.9122C42.2561 47.5002 42.2573 47.0888 42.258 46.6768C42.3398 47.0888 42.352 47.5002 42.2549 47.9122Z" fill="#B0B0B0"/>
<path d="M45.5758 38.8758C45.5758 38.4619 45.5758 38.048 45.5758 37.6342C45.6662 38.048 45.6717 38.4619 45.5758 38.8758Z" fill="white"/>
<path d="M32.1619 42.3054C32.5518 42.2273 32.9404 42.1934 33.3272 42.3232C32.9386 42.317 32.5505 42.3115 32.1619 42.3054Z" fill="white"/>
<path d="M45.3335 48.7718C45.3925 48.4428 45.4313 48.1138 45.3335 47.7854C45.3864 47.7977 45.4454 47.8241 45.438 47.8789C45.3962 48.1759 45.5733 48.4988 45.3335 48.7718Z" fill="#E3E3E3"/>
<path d="M38.8663 43.0576C38.9205 42.7895 38.9284 42.5017 39.1738 42.3129C39.0853 42.5669 39.0287 42.8344 38.8663 43.0576Z" fill="white"/>
<path d="M43.2991 47.9645C43.395 48.3378 43.3926 48.7104 43.2979 49.0831C43.2979 48.7104 43.2985 48.3372 43.2991 47.9645Z" fill="#B1B1B1"/>
<path d="M22.8868 8.30286C22.9022 8.3047 22.917 8.30716 22.9317 8.31085C22.9084 8.65831 23.0031 9.01008 22.8875 9.35323C22.8875 9.00331 22.8875 8.65278 22.8868 8.30286Z" fill="white"/>
<path d="M21.8329 18.0306C21.4843 18.1051 21.1349 18.1253 20.7856 18.0343C21.1349 18.0331 21.4836 18.0319 21.8329 18.0306Z" fill="white"/>
<path d="M22.8837 10.0826C22.9913 10.4098 22.9255 10.745 22.9311 11.0771C22.8259 10.7499 22.8905 10.4147 22.8837 10.0826Z" fill="#868686"/>
<path d="M22.8185 6.14575C22.936 6.45139 22.8616 6.76688 22.8683 7.07805C22.7552 6.77241 22.84 6.45631 22.8185 6.14575Z" fill="#ECECEC"/>
<path d="M22.8217 3.50183C22.9318 3.80809 22.8611 4.12295 22.8691 4.43475C22.7596 4.12849 22.834 3.81301 22.8217 3.50183Z" fill="#969696"/>
<path d="M27.7242 36.654C27.6873 37.106 27.651 37.558 27.6141 38.01C27.6098 38.0592 27.6154 38.1139 27.5514 38.1336L27.5016 38.0709C27.5428 37.5377 27.584 37.0045 27.6246 36.4713C27.6578 36.5322 27.691 36.5931 27.7242 36.654Z" fill="white"/>
<path d="M31.2425 35.7996C31.2376 36.2559 31.2702 36.7153 31.1177 37.158C31.0008 37.0885 31.0371 36.9613 31.0617 36.8862C31.1865 36.5092 31.0365 36.1046 31.1896 35.7338C31.2068 35.7559 31.2247 35.778 31.2419 35.8002L31.2425 35.7996Z" fill="white"/>
<path d="M13.7177 18.95C13.4004 19.0558 13.0726 18.9967 12.7498 19.0047C12.3107 19.0158 11.871 19.0004 11.4313 18.9967C11.4571 18.9402 11.5088 18.9395 11.5592 18.9402C12.2787 18.9432 12.9982 18.9469 13.7177 18.9506V18.95Z" fill="#8B8B8B"/>
<path d="M37.206 38.1432C37.0774 38.0817 37.1869 38.0104 37.1967 37.9421C37.2459 37.5953 37.2945 37.2485 37.3437 36.9016L37.444 37.0221C37.3486 37.3924 37.3757 37.7884 37.2066 38.1426L37.206 38.1432Z" fill="white"/>
<path d="M34.5535 35.9171C34.5154 36.2394 34.4772 36.5622 34.4404 36.8845C34.4336 36.9423 34.4545 37.0087 34.3764 37.0358C34.3592 36.7197 34.3592 36.4042 34.4133 36.0912C34.4231 36.0327 34.4367 35.9749 34.449 35.9171C34.4834 35.9171 34.5184 35.9171 34.5529 35.9171H34.5535Z" fill="white"/>
<path d="M37.5847 34.1996L37.5829 32.4088C37.7003 32.6689 37.6345 32.9445 37.6321 33.2107C37.629 33.5397 37.688 33.8749 37.5847 34.1996Z" fill="white"/>
<path d="M24.0516 34.3755C24.1457 34.932 24.1451 35.4886 24.0516 36.0458C24.0516 35.4892 24.0516 34.9327 24.0516 34.3755Z" fill="#7A7A7A"/>
<path d="M43.6102 31.9185C43.7043 32.4725 43.692 33.0273 43.6115 33.5813L43.6102 31.9185Z" fill="#CBCBCB"/>
<path d="M20.5443 34.0063C20.6409 34.5635 20.6409 35.1201 20.5443 35.6772C20.5443 35.1201 20.5443 34.5635 20.5443 34.0063Z" fill="white"/>
<path d="M31.1853 35.3679V33.6995C31.28 34.256 31.2794 34.8119 31.1853 35.3679Z" fill="#767676"/>
<path d="M23.931 36.4104C23.9279 36.0137 23.9255 35.6177 23.9218 35.221C23.9205 35.1017 23.9322 34.9806 23.8707 34.8699C23.9027 34.892 23.9611 34.9129 23.9624 34.9357C23.9765 35.4277 24.0392 35.9209 23.9316 36.4104H23.931Z" fill="white"/>
<path d="M43.3618 34.6915C43.3618 34.1762 43.3618 33.6609 43.3618 33.1461C43.4664 33.6615 43.4405 34.1768 43.3618 34.6915Z" fill="#747474"/>
<path d="M27.6172 35.8624C27.6172 35.3667 27.6172 34.8704 27.6172 34.3748C27.7094 34.8704 27.7144 35.3667 27.6172 35.8624Z" fill="#A9A9A9"/>
<path d="M31.3065 33.2059C31.3981 33.7022 31.4043 34.1985 31.3071 34.6948C31.3071 34.1985 31.3071 33.7022 31.3065 33.2059Z" fill="white"/>
<path d="M27.7384 34.0045C27.8356 34.4596 27.8362 34.9153 27.7384 35.3704C27.7384 34.9153 27.7384 34.4596 27.7384 34.0045Z" fill="white"/>
<path d="M45.3271 38.8149C45.2754 38.5468 45.4107 38.2615 45.2533 38.0032C45.2945 37.9306 45.2158 37.8199 45.3904 37.7271C45.3603 38.1176 45.4464 38.4662 45.3271 38.8149Z" fill="#CECECE"/>
<path d="M37.7649 31.9155C37.8614 32.3497 37.8565 32.7833 37.7655 33.2174C37.7655 32.7833 37.7655 32.3497 37.7649 31.9155Z" fill="#6B6B6B"/>
<path d="M16.3583 55.0533C16.5163 54.5299 16.7279 54.0435 17.1141 53.6321C17.6116 53.1026 18.6872 53.1432 19.1257 53.6456C19.4012 53.9605 19.6527 54.2704 19.748 54.6861C19.7615 54.7458 19.7818 54.822 19.8593 54.8479C19.895 55.175 19.9423 55.501 19.9251 55.8312C19.6828 55.9235 19.8101 56.1553 19.7591 56.3146C19.5143 57.0784 19.0586 57.63 18.2616 57.7997C17.7444 57.9098 17.0157 57.5531 16.6676 56.8435C16.5471 56.5981 16.4604 56.3355 16.3583 56.0809C16.4099 55.7383 16.3743 55.3958 16.3583 55.0533ZM18.1392 57.5679C18.6724 57.6042 19.0334 57.2862 19.3101 56.8736C19.8341 56.092 19.8329 55.2421 19.4799 54.4088C19.2628 53.8953 18.8643 53.5214 18.2665 53.442C17.5858 53.3522 17.1418 53.7218 16.8312 54.2513C16.3657 55.0453 16.3595 55.8859 16.7961 56.6897C17.0698 57.1928 17.4578 57.6079 18.1392 57.5679Z" fill="white"/>
<path d="M16.3582 55.0535C16.3742 55.396 16.4099 55.7385 16.3582 56.0811C16.1867 56.2945 16.1787 56.5811 16.0317 56.8068C15.7027 57.3104 15.2691 57.6585 14.6412 57.5558C14.0656 57.4623 13.7551 57.014 13.538 56.5159C13.4654 56.3498 13.3824 56.1703 13.4002 55.9741C13.2778 55.6918 13.4445 55.4317 13.4642 55.1605C13.4771 54.5658 14.0533 53.7878 14.6954 53.7442C15.4284 53.6944 15.9671 54.1359 16.1891 54.7577C16.2242 54.8554 16.202 55.0147 16.3595 55.0522L16.3582 55.0535ZM13.5306 55.6278C13.482 56.0922 13.6308 56.5294 13.9094 56.9088C14.3817 57.5509 15.2359 57.5644 15.7556 56.9617C16.333 56.2926 16.3066 55.1451 15.8558 54.4569C15.4389 53.8198 14.4457 53.7485 14.0238 54.2712C13.7003 54.6716 13.4955 55.0891 13.53 55.6285L13.5306 55.6278Z" fill="#FBFBFB"/>
<path d="M11.9304 56.6307C12.3633 57.0102 12.6013 56.9997 13.0109 56.5871C13.0269 56.5711 13.0699 56.5809 13.1001 56.5791C13.0251 56.8355 12.8449 56.9733 12.589 57.0145C12.2754 57.0649 12.0516 56.9235 11.8892 56.6658C11.888 56.664 11.9163 56.643 11.9304 56.6307Z" fill="#F2F2F2"/>
<path d="M13.4636 55.1614C13.4439 55.4326 13.2773 55.6921 13.3997 55.975H13.3714L13.3449 55.9836C13.2521 55.7321 13.2435 55.4805 13.3511 55.2303C13.3886 55.2075 13.4261 55.1841 13.4636 55.1614Z" fill="#A7A7A7"/>
<path d="M23.4922 55.1154C23.4663 55.659 23.2942 56.3023 22.7425 56.8158C21.9861 57.5199 21.0882 57.2924 20.5372 56.584C20.2095 56.1621 20.0877 55.6658 19.9887 55.1584C19.8411 54.4039 20.4296 53.1844 21.1417 52.8744C21.7493 52.61 22.523 52.7281 22.943 53.3357C23.3698 53.9531 23.494 54.3061 23.4928 55.116L23.4922 55.1154ZM23.1207 54.9174C23.1626 54.4494 23.0217 54.0066 22.7468 53.6087C22.3391 53.0183 21.4911 52.8953 20.9948 53.3713C20.2088 54.1259 20.1326 55.4776 20.798 56.3669C21.349 57.1036 22.1958 57.0532 22.7364 56.3257C23.0457 55.9093 23.1459 55.4444 23.1201 54.9174H23.1207Z" fill="white"/>
<path d="M23.2552 49.446C23.3592 49.9995 23.2946 50.5573 23.2995 51.1132C23.2854 51.1102 23.2706 51.1071 23.2559 51.1052C23.2559 50.5524 23.2559 49.9989 23.2552 49.446Z" fill="white"/>
<path d="M23.2356 47.7271C23.2356 48.1367 23.2356 48.5462 23.2356 48.9564C23.1268 48.5481 23.2036 48.133 23.1901 47.7209C23.2049 47.7234 23.2196 47.7253 23.235 47.7271H23.2356Z" fill="#D7D7D7"/>
<path d="M23.2356 47.7269C23.2208 47.7257 23.2054 47.7233 23.1907 47.7208C23.1907 47.3918 23.1895 47.0634 23.1888 46.7344C23.3045 47.0603 23.2288 47.3955 23.2356 47.7269Z" fill="#B7B7B7"/>
<path d="M23.2557 51.1052C23.2705 51.1071 23.2846 51.1101 23.2994 51.1132C23.2988 51.4201 23.2982 51.727 23.2976 52.0332C23.2834 52.0314 23.2699 52.0295 23.2557 52.0277C23.2557 51.7202 23.2557 51.4127 23.2557 51.1052Z" fill="white"/>
<path d="M23.2559 52.0282C23.2701 52.03 23.2836 52.0319 23.2977 52.0337C23.299 52.3418 23.2996 52.6506 23.3008 52.9587C23.1901 52.653 23.2608 52.3388 23.2559 52.0282Z" fill="#777777"/>
<path d="M36.4052 41.7571C36.3923 41.3579 36.4643 40.9822 36.7127 40.6562C36.61 41.0234 36.5079 41.3899 36.4052 41.7571Z" fill="#A2A2A2"/>
<path d="M30.502 40.7164C30.4129 41.0165 30.3243 41.3173 30.2339 41.6168C30.2026 41.7201 30.13 41.8172 30.1983 41.931C30.1546 41.931 30.1109 41.931 30.0673 41.931C30.17 41.5614 30.2745 41.1924 30.3754 40.8222C30.3944 40.7521 30.4338 40.7201 30.5027 40.7164H30.502Z" fill="#BABABA"/>
<path d="M33.5752 41.0824C33.5155 41.2835 33.4565 41.4846 33.3968 41.6857C33.3144 41.6869 33.232 41.6882 33.149 41.6894C33.1465 41.6752 33.1441 41.6611 33.141 41.6476C33.3089 41.6648 33.3359 41.5363 33.3771 41.4219C33.4177 41.3081 33.4602 41.1949 33.502 41.0812C33.5266 41.0812 33.5506 41.0818 33.5752 41.0824Z" fill="#C7C7C7"/>
<path d="M33.1416 41.6476C33.1441 41.6617 33.1472 41.6753 33.1496 41.6894C32.7991 41.6894 32.4486 41.6894 32.0986 41.69C32.4424 41.58 32.7936 41.6507 33.1422 41.6476H33.1416Z" fill="white"/>
<path d="M28.1644 52.9598C28.1257 52.2274 28.3686 51.6161 28.8839 51.0891C29.4848 50.4753 30.4244 50.7379 30.8678 51.2736C31.2362 51.7182 31.3352 52.2532 31.4256 52.7968C31.5652 53.6344 31.0154 54.7088 30.2529 55.0802C29.8605 55.2715 29.2849 55.1811 28.9608 54.8871C28.3901 54.3687 28.1269 53.7248 28.1638 52.9598H28.1644ZM30.5069 52.9918C30.5259 52.64 30.438 52.319 30.2559 52.0226C29.9521 51.5288 29.3169 51.5318 29.0334 52.0349C28.6742 52.672 28.6724 53.306 29.0807 53.9272C29.2947 54.2531 29.5973 54.3478 29.9325 54.167C30.4005 53.9142 30.4866 53.4665 30.5069 52.9918Z" fill="white"/>
<path d="M27.1247 54.0741C27.1216 54.6601 27.0103 55.1097 26.7372 55.5291C26.22 56.3236 25.1604 56.4632 24.5615 55.499C24.04 54.6595 24.024 53.7543 24.5215 52.889C25.1266 51.8374 26.2865 51.9567 26.816 52.9087C27.0361 53.3047 27.1456 53.7198 27.1247 54.0735V54.0741ZM24.7718 54.3096C24.7429 54.5162 24.8548 54.7997 25.0313 55.0629C25.2625 55.4079 25.6272 55.4412 25.9347 55.1552C26.0934 55.007 26.1979 54.836 26.2649 54.6275C26.3818 54.2635 26.3314 53.9086 26.2176 53.5649C26.1278 53.2924 25.9562 53.0612 25.6389 53.0157C25.2945 52.9665 25.0854 53.1307 24.928 53.437C24.8019 53.6829 24.7902 53.932 24.7712 54.3096H24.7718Z" fill="white"/>
<path d="M13.0959 55.6136C13.1119 56.009 13.0806 56.3725 12.7294 56.6135C12.489 56.7789 12.203 56.7211 12.056 56.4653C11.7325 55.902 11.6956 55.3405 12.0843 54.7846C12.2799 54.5048 12.5302 54.4703 12.7841 54.6948C13.0701 54.9476 13.1248 55.2741 13.0959 55.6136ZM12.5498 56.1634C12.7466 55.9493 12.8063 55.4537 12.6685 55.2126C12.5806 55.0583 12.4398 54.9845 12.2879 55.0576C12.1274 55.1351 12.032 55.284 12.1151 55.4826C12.1151 55.5791 12.1151 55.6757 12.1151 55.7722C12.0117 55.9838 12.1563 56.1099 12.2848 56.231C12.3943 56.3331 12.4816 56.2642 12.5498 56.1634Z" fill="#FDFDFD"/>
<path d="M23.0603 43.7311C22.9951 43.9931 22.9305 44.255 22.8653 44.517C22.845 44.4973 22.8247 44.4783 22.8044 44.4586C22.8795 44.2126 22.826 43.9211 23.0603 43.7311Z" fill="#AAAAAA"/>
<path d="M22.8044 44.4586C22.8247 44.4783 22.845 44.4974 22.8653 44.517C22.7724 44.7932 22.7208 45.0847 22.567 45.3393C22.5812 45.0287 22.7091 44.7483 22.8038 44.4586H22.8044Z" fill="#C9C9C9"/>
<path d="M27.5016 38.0707L27.5514 38.1334C27.5754 38.471 27.5287 38.8 27.4278 39.1223C27.311 38.8542 27.4727 38.5934 27.4567 38.3247C27.453 38.2582 27.4721 38.1531 27.5016 38.0707Z" fill="white"/>
<path d="M26.9944 41.5829C26.907 41.915 26.8621 42.2606 26.6899 42.5662C26.7459 42.2243 26.7428 41.8639 26.9944 41.5829Z" fill="#ABABAB"/>
<path d="M33.5751 41.0822C33.5512 41.0822 33.5266 41.0816 33.502 41.0809C33.5776 40.8546 33.5186 40.5761 33.759 40.4131C33.6975 40.6363 33.636 40.8589 33.5745 41.0822H33.5751Z" fill="#ADADAD"/>
<path d="M43.1429 37.5536C43.1847 37.7602 43.0857 37.9429 42.9891 38.1274C43.0143 37.9349 43.0402 37.7424 43.0654 37.5499C43.0912 37.5512 43.1171 37.5524 43.1429 37.5536Z" fill="#B3B3B3"/>
<path d="M43.2813 36.3751C43.2783 36.3811 43.2747 36.3866 43.2716 36.3926C43.2632 36.386 43.2541 36.3799 43.2456 36.3733C43.2517 36.3672 43.2583 36.3618 43.2644 36.3557C43.2704 36.3618 43.2759 36.3684 43.2819 36.3745L43.2813 36.3751Z" fill="white"/>
<path d="M18.1393 57.5681C17.4579 57.6074 17.0698 57.1923 16.7962 56.6899C16.3589 55.8867 16.3657 55.0454 16.8312 54.2515C17.1418 53.7214 17.5858 53.3518 18.2666 53.4422C18.8643 53.5215 19.2622 53.8954 19.4799 54.409C19.8329 55.2422 19.8341 56.0927 19.3102 56.8738C19.0334 57.2864 18.6725 57.6044 18.1393 57.5681ZM16.8552 55.4667C16.8115 55.8529 16.9142 56.2139 17.0957 56.5595C17.5747 57.4715 18.4591 57.4568 18.9738 56.8196C19.4971 56.1715 19.5346 55.011 19.0544 54.2804C18.614 53.6101 17.6571 53.5689 17.2279 54.2208C16.9831 54.5922 16.7986 54.9926 16.8558 55.4667H16.8552Z" fill="white"/>
<path d="M13.5306 55.6277C13.4955 55.0883 13.7009 54.6708 14.0244 54.2704C14.4463 53.7483 15.4395 53.8196 15.8564 54.4561C16.3072 55.1443 16.3336 56.2925 15.7562 56.9609C15.2359 57.5636 14.3823 57.5501 13.91 56.908C13.6314 56.5292 13.4826 56.0914 13.5312 55.6271L13.5306 55.6277ZM13.7753 55.6326C13.7753 56.0477 13.8866 56.4837 14.1142 56.7561C14.557 57.2862 15.1344 57.2807 15.5606 56.7801C16.0618 56.191 16.0661 55.2611 15.6596 54.6431C15.2365 53.9998 14.4506 54.0158 14.0668 54.6412C13.8737 54.9567 13.7427 55.2833 13.7753 55.632V55.6326Z" fill="white"/>
<path d="M23.1205 54.9174C23.1463 55.4439 23.0454 55.9094 22.7367 56.3257C22.1962 57.0539 21.3493 57.1037 20.7983 56.3669C20.1329 55.4777 20.2092 54.126 20.9951 53.3714C21.4914 52.8954 22.3394 53.0184 22.7472 53.6088C23.0221 54.0067 23.1629 54.4494 23.1211 54.9174H23.1205ZM20.9109 54.958C20.8783 55.3344 20.9748 55.5164 21.0978 55.7237C21.3862 56.2107 21.9053 56.2212 22.1894 55.7403C22.476 55.2551 22.4594 54.7459 22.206 54.2514C22.0756 53.9974 21.869 53.8517 21.5566 53.8708C21.2626 53.8892 21.131 54.0952 21.0412 54.3111C20.9551 54.5183 20.8543 54.7403 20.9109 54.958Z" fill="white"/>
<path d="M30.5069 52.9919C30.4866 53.4667 30.4005 53.9144 29.9325 54.1671C29.5974 54.3479 29.2954 54.2538 29.0808 53.9273C28.6724 53.3055 28.6743 52.6721 29.0334 52.035C29.3169 51.5313 29.9528 51.5283 30.256 52.0227C30.438 52.3191 30.526 52.6401 30.5069 52.9919ZM30.2498 52.9624C30.291 52.6789 30.2437 52.4114 30.0795 52.1623C29.9719 51.9993 29.8587 51.8985 29.6423 51.8997C29.4276 51.9009 29.3071 51.9895 29.2105 52.1629C28.9227 52.6801 28.916 53.1924 29.1995 53.7157C29.3003 53.9021 29.4135 54.0054 29.6423 54.0054C29.8716 54.0054 29.9799 53.8941 30.0918 53.7182C30.2419 53.482 30.2812 53.236 30.2498 52.963V52.9624Z" fill="white"/>
<path d="M24.7719 54.3098C24.7909 53.9323 24.802 53.6832 24.9287 53.4372C25.0861 53.1309 25.2946 52.9667 25.6396 53.0159C25.9563 53.0615 26.1279 53.2927 26.2183 53.5651C26.3314 53.9089 26.3825 54.2637 26.2656 54.6278C26.1986 54.8363 26.0947 55.0078 25.9354 55.1554C25.6285 55.4414 25.2632 55.4082 25.032 55.0632C24.8555 54.7994 24.7436 54.5159 24.7725 54.3098H24.7719ZM24.9736 54.1881C24.9213 54.482 25.0646 54.7139 25.2116 54.9451C25.3807 55.2108 25.7884 55.1493 25.9292 54.9107C26.1635 54.5134 26.2466 53.8855 25.92 53.4329C25.6851 53.107 25.3512 53.1008 25.155 53.4427C25.024 53.6709 24.9305 53.9156 24.9742 54.1881H24.9736Z" fill="white"/>
<path d="M12.115 55.7727C12.115 55.6761 12.115 55.5796 12.115 55.483C12.19 55.456 12.1617 55.3791 12.1894 55.333C12.2423 55.2469 12.2417 55.1036 12.3967 55.1085C12.5455 55.1134 12.5639 55.2463 12.6014 55.3379C12.706 55.5919 12.6863 55.8453 12.543 56.0851C12.377 56.2124 12.2835 56.1429 12.206 55.9756C12.1747 55.9086 12.2152 55.8065 12.1138 55.7727H12.115Z" fill="white"/>
<path d="M12.5442 56.0851C12.6869 55.8459 12.7072 55.5919 12.6026 55.3379C12.5651 55.2469 12.5467 55.1135 12.3978 55.1085C12.2422 55.1036 12.2429 55.2463 12.1906 55.333C12.1629 55.3785 12.1906 55.456 12.1162 55.4831C12.0331 55.2844 12.1285 55.1356 12.289 55.0581C12.4409 54.9843 12.5817 55.0581 12.6696 55.2131C12.8074 55.4542 12.7477 55.9498 12.551 56.1638L12.5448 56.0857L12.5442 56.0851Z" fill="white"/>
<path d="M16.8551 55.4664C16.7979 54.9923 16.983 54.5919 17.2272 54.2205C17.6564 53.5686 18.6133 53.6098 19.0536 54.2802C19.5339 55.0107 19.4964 56.1712 18.9731 56.8194C18.4583 57.4565 17.574 57.4712 17.0949 56.5592C16.9135 56.2136 16.8108 55.8526 16.8545 55.4664H16.8551ZM18.574 55.5507C18.574 55.3969 18.574 55.3256 18.574 55.2543C18.5727 54.9228 18.328 54.5317 18.0961 54.4911C17.721 54.4253 17.4855 54.5729 17.3133 54.9775C17.1361 55.3939 17.1909 55.7985 17.4135 56.1724C17.6976 56.6496 18.1244 56.6318 18.4264 56.1595C18.5653 55.9418 18.5832 55.7112 18.574 55.5507Z" fill="white"/>
<path d="M13.7755 55.6327C13.7429 55.2834 13.8739 54.9574 14.067 54.642C14.4507 54.0165 15.2367 54.0005 15.6598 54.6438C16.0656 55.2612 16.062 56.1911 15.5608 56.7808C15.1346 57.2814 14.5571 57.287 14.1143 56.7569C13.8868 56.4844 13.7755 56.0478 13.7755 55.6333V55.6327ZM15.1918 55.6548C15.1918 55.5515 15.1973 55.4593 15.1905 55.3676C15.1702 55.0718 14.9513 54.7883 14.6727 54.757C14.388 54.7244 14.2453 54.9396 14.1506 55.1659C14.0307 55.4537 14.0448 55.7526 14.1475 56.0453C14.222 56.2575 14.2982 56.4481 14.5866 56.466C14.9058 56.4857 15.03 56.3055 15.1469 56.0613C15.2145 55.9193 15.1684 55.7815 15.1918 55.6548Z" fill="white"/>
<path d="M20.911 54.9581C20.8544 54.741 20.9552 54.519 21.0413 54.3111C21.1311 54.0952 21.2627 53.8892 21.5567 53.8708C21.8697 53.8511 22.0757 53.9969 22.2061 54.2515C22.4595 54.7459 22.4767 55.2551 22.1895 55.7403C21.9054 56.2212 21.387 56.2108 21.0979 55.7237C20.9749 55.5165 20.8778 55.3344 20.911 54.9581ZM21.0936 54.9661C21.0936 55.2366 21.1637 55.4925 21.2799 55.6751C21.4767 55.9838 21.823 55.9814 22.013 55.6684C22.2793 55.2293 22.2565 54.7668 22.0474 54.3296C21.9195 54.0614 21.6003 53.8911 21.3138 54.2379C21.1311 54.4587 21.0696 54.7133 21.0936 54.9661Z" fill="white"/>
<path d="M18.5745 55.5507C18.5838 55.7112 18.5659 55.9419 18.427 56.1596C18.1256 56.6312 17.6982 56.6497 17.4141 56.1725C17.1915 55.7986 17.1367 55.3939 17.3139 54.9776C17.486 54.5729 17.721 54.4253 18.0967 54.4911C18.3279 54.5317 18.5733 54.9228 18.5745 55.2543C18.5745 55.3257 18.5745 55.397 18.5745 55.5507ZM17.4043 55.4443C17.3956 55.683 17.4412 55.9019 17.566 56.0845C17.8089 56.4394 18.1029 56.4191 18.2966 56.0298C18.4718 55.6786 18.4522 55.3066 18.3156 54.9462C18.2455 54.7605 18.1059 54.6154 17.8919 54.6227C17.6994 54.6295 17.6078 54.7925 17.5266 54.9438C17.4405 55.103 17.3981 55.2758 17.4036 55.445L17.4043 55.4443Z" fill="white"/>
<path d="M15.1917 55.6547C15.1683 55.7808 15.215 55.9191 15.1468 56.0612C15.0305 56.3053 14.9057 56.4849 14.5865 56.4658C14.2981 56.448 14.2219 56.258 14.1474 56.0452C14.0454 55.7525 14.0306 55.4536 14.1505 55.1658C14.2446 54.9395 14.3879 54.7242 14.6726 54.7568C14.9512 54.7888 15.1701 55.0717 15.1904 55.3675C15.1966 55.4591 15.1917 55.5514 15.1917 55.6547ZM15.0619 55.5833C15.1068 55.3859 15.0232 55.2119 14.9168 55.0539C14.7987 54.8774 14.522 54.8626 14.3928 55.0114C14.1425 55.2992 14.1438 55.8878 14.3947 56.1873C14.5828 56.4117 14.7981 56.3927 14.9438 56.1338C15.0379 55.9659 15.0902 55.7863 15.0619 55.584V55.5833Z" fill="white"/>
</g>
<defs>
<clipPath id="clip0_54_1162">
<rect width="46" height="58.853" fill="white" transform="translate(0 0.617676)"/>
</clipPath>
</defs>
</svg>
