<svg width="46" height="60" fill="none" xmlns="http://www.w3.org/2000/svg"><g clip-path="url(#a)"><path d="M45.333 48.772a10.45 10.45 0 0 1-.864 4.115c-.593 1.386-1.479 2.563-2.604 3.547-.949.829-2.053 1.42-3.23 1.877-1.07.416-2.182.668-3.306.838-.743.112-1.497.218-2.256.2-.221-.006-.433.112-.659.05-.47-.115-.946-.017-1.419-.049-.123-.008-.263-.06-.376.05-.865-.069-1.735-.044-2.6-.16a9.601 9.601 0 0 0-1.027-.079c-.303-.007-.605-.04-.907-.062-.06-.005-.088-.044-.107-.108.486-.034.97-.036 1.452-.058 1.08-.05 2.152-.14 3.227-.247 1.006-.1 2.002-.23 2.986-.447 1.97-.437 3.844-1.118 5.52-2.274 1.642-1.134 2.885-2.602 3.62-4.466.303-.77.496-1.578.515-2.415a2.23 2.23 0 0 0 .001-1.119c-.04-2.12-.464-4.172-1.08-6.192-.119-.06-.222.03-.313.059-.727.232-1.388-.423-1.433-1.09-.02-.299-.055-.605.048-.905.032-.096.024-.196-.111-.27-.126-.068-.213-.21-.317-.32-.03-.077-.11-.09-.168-.132-.053-.43-.158-.865-.002-1.286.077-.208.044-.28-.149-.385a1.246 1.246 0 0 1-.593-1.43c.063-.232.021-.372-.192-.503-.451-.278-.652-.872-.49-1.383.067-.209.082-.409-.003-.617-.421-1.033-.606-2.097-.365-3.204.184-.842.54-1.587 1.276-2.102.189-.132.43-.24.325-.578-.264-.842-.478-1.7-.757-2.536-.106-.319-.157-.687-.497-.904-.51-.325-.997-.691-1.507-1.018-.47-.302-.96-.576-1.44-.863a24.554 24.554 0 0 1 1.61 4.667c.38 1.624.585 3.274.624 4.943v1.301c-.023.566-.025 1.134-.075 1.697-.062.705-.162 1.406-.247 2.109l-.1-.12c-.068-.147.042-.271.053-.408.06-.765.125-1.53.188-2.295.104-.325.044-.66.047-.99.003-.266.069-.54-.049-.801-.023-.24-.072-.482-.065-.721.017-.61-.049-1.218-.138-1.813a26.906 26.906 0 0 0-.654-3.197c-.398-1.44-.948-2.813-1.605-4.15-.228-.465-.54-.78-1.013-.987-.804-.354-1.598-.734-2.419-1.047-.335-.128-.668-.293-1.077-.33a13.179 13.179 0 0 1 1.46 2.098 17.322 17.322 0 0 1 1.588 3.796c.22.772.405 1.548.562 2.336.157.786.233 1.58.342 2.37.083.61.04 1.22.069 1.83.085.448.046.9.043 1.352-.086.044-.054.126-.05.189.029.596-.049 1.188-.073 1.782h-.104c-.062-.494.09-.978.056-1.47.093-.455.096-.91 0-1.365-.021-.818-.106-1.63-.179-2.444a21.146 21.146 0 0 0-.463-2.797c-.388-1.708-.963-3.354-1.813-4.896-.585-1.06-1.268-2.047-2.102-2.927-.11-.118-.244-.176-.407-.224a22.268 22.268 0 0 0-1.963-.465c-.423-.085-.848-.21-1.315-.2.582.576 1.08 1.19 1.528 1.841.895 1.302 1.572 2.716 2.094 4.201.601 1.712.988 3.48 1.224 5.277.12.912.214 1.832.197 2.756v1.489c-.001.112.007.225-.006.337-.031.256.08.521-.058.768l-.053-.066-.005-.365a4.965 4.965 0 0 0 .001-1.669c-.029-.554-.082-1.108-.12-1.662-.055-.793-.184-1.572-.307-2.355a22.948 22.948 0 0 0-.712-3.088c-.484-1.596-1.125-3.126-2.002-4.553a13.986 13.986 0 0 0-2.34-2.885.587.587 0 0 0-.318-.154c-.388-.063-.777-.088-1.167-.124-.452-.042-.905-.052-1.357-.105-.414-.049-.84-.01-1.314-.01.295.265.548.472.777.704.751.764 1.432 1.59 2.017 2.488a19.462 19.462 0 0 1 2.31 4.96c.46 1.507.766 3.042.95 4.6.097.822.165 1.655.135 2.49v1.365l-.014 1.283-.1-.183-.007-.608a3.957 3.957 0 0 0 0-1.488c-.012-.84-.097-1.673-.181-2.51a19.538 19.538 0 0 0-.27-1.9c-.266-1.323-.59-2.636-1.082-3.901a19.96 19.96 0 0 0-1.465-3.023 16.14 16.14 0 0 0-3.075-3.75c-.373-.335-.745-.589-1.307-.546-.79.06-1.588.009-2.382.071-.405.032-.816-.03-1.216.095 1.8 1.08 3.085 2.316 4.198 3.928.974 1.412 1.666 2.963 2.169 4.603.413 1.346.682 2.725.845 4.118.108.932.203 1.872.201 2.815v1.67c-.022.414-.07.829-.06 1.241.011.409-.047.811-.089 1.21-.023.224.047.48-.103.691-.117-.071-.07-.19-.056-.277.083-.56.118-1.123.118-1.69 0-.271-.025-.546.07-.81.107-.49.045-.983.03-1.475 0-.023-.06-.044-.092-.066a26.999 26.999 0 0 0-.184-2.903 22.54 22.54 0 0 0-.332-2.129 21.87 21.87 0 0 0-.843-3.029c-.706-1.926-1.706-3.68-3.094-5.196a11.487 11.487 0 0 0-2.858-2.25c-.29-.162-.55-.411-.908-.415-.645-.009-1.29 0-1.934.003l-2.159-.01c-.05 0-.102 0-.128.056-.416.009-.827-.093-1.245-.055-.09.008-.182-.01-.272-.02-.383-.036-.763-.115-1.208-.096.09.055.127.088.171.102a17.962 17.962 0 0 1 4.703 2.348c1.403.973 2.674 2.082 3.758 3.407a13.425 13.425 0 0 1 2.283 4.083c.596 1.693.875 3.447.923 5.24v1.67a49.797 49.797 0 0 1-.178 2.136c-.104.995-.3 1.97-.528 2.937a25.288 25.288 0 0 1-1.225 3.773c-.8 1.96-1.9 3.754-3.058 5.514a36.609 36.609 0 0 1-2.322 3.171c-.34.411-.626.89-1.121 1.155a1.16 1.16 0 0 0-.48.867c-.088.263-.252.089-.353.038-.553-.275-.886-.74-1.066-1.318-.182-.58.019-1.088.382-1.524.239-.285.528-.537.823-.767.45-.351.46-.836.371-1.301-.179-.932-.46-1.845-.631-2.778-.175-.948-.297-1.907.035-2.861.215-.62.678-1.01 1.196-1.343.323-.209.469-.454.408-.838-.02-.122-.081-.313.138-.344.205-.03.396-.027.473.245.096.338.083.636-.096.972.84.052 1.222-.303 1.193-1.125-.054.014-.116.013-.155.043-.136.1-.263.049-.36-.038-.088-.08-.139-.212-.073-.331.064-.12.115-.25.3-.267.52-.045.806.25.859.772.1.969-.694 1.534-1.478 1.52.134.121.254.234.38.343.372.325.389.754.34 1.197-.024.22-.21.164-.353.17-.153.008-.235-.027-.258-.212-.075-.607-.726-1.012-1.264-.76-.447.212-.601.656-.631 1.12-.057.873.215 1.698.44 2.524.189.697.448 1.373.71 2.047.118.303.301.506.59.636.218.1.455.125.685.176.227.05.371-.046.515-.252a31.953 31.953 0 0 0 2.553-4.303 27.21 27.21 0 0 0 2.108-5.87c.205-.883.365-1.777.462-2.683.068-.63.076-1.266.183-1.892a5.033 5.033 0 0 0 0-1.604c-.129-1.797-.348-3.581-.944-5.29a15.457 15.457 0 0 0-2.074-4.02c-.596-.822-1.24-1.604-1.987-2.291a16.922 16.922 0 0 0-5.982-3.587c-1.825-.63-3.714-1.031-5.574-1.535-.899-.244-1.802-.47-2.701-.707-.18-.048-.372-.05-.54-.15-.136-.081-.232-.206-.175-.338.06-.14.18-.27.388-.21 1.11.316 2.217.648 3.335.93.914.23 1.832.45 2.764.61.76.131 1.524.217 2.283.35.216.038.447.05.66.05.48 0 .95.119 1.43.069.536-.01 1.075.073 1.609-.046.296-.004.592-.016.888-.007.873.025 1.737-.108 2.608-.134.654-.02 1.312-.062 1.963-.123.843-.079 1.692-.053 2.532-.17.079-.011.162.006.244.01.35.091.698.072 1.047-.003h1.116v-.805c.126-.447.016-.902.045-1.352-.007-.576.057-1.155-.046-1.729l-.018-.49c.003-.372.015-.745.004-1.117-.006-.204.061-.416-.054-.611.021-.283-.062-.572.05-.85-.005-.332.061-.668-.046-.995l.003-.73c.116-.343.021-.695.044-1.042-.01-.413.064-.83-.045-1.239l-.019.006c-.006-.31.068-.626-.05-.932 0-.475 0-.95-.003-1.425 0-.1-.001-.198.055-.286-.008-.312.063-.627-.048-.933v-.663c.182.02.312.137.482.2-.02.712.112 1.43.065 2.153-.043.674.078 1.342.065 2.014-.005.232.133.307.404.22a1.97 1.97 0 0 0 1.07-.787c.398-.594.56-1.288.737-1.966.228-.875.445-1.744.974-2.503.555-.796 1.285-1.292 2.254-1.433 1.328-.193 2.576-.005 3.668.813.836.626 1.402 1.448 1.592 2.5.249 1.383-.138 2.64-.738 3.86-.522 1.059-1.111 2.089-1.37 3.26-.16.72-.209 1.431-.067 2.171.133.693.307 1.354.698 1.949.368.56.825 1.012 1.537.998.618-.011 1.086-.377 1.466-.84.401-.49.723-1.045 1.198-1.474.498-.45 1.224-.65 1.848-.181.26.194.383.51.532.795.14.268.265.558.535.716.329.191.678.214 1.027.02.334-.186.49-.46.468-.841-.004-.066-.028-.142.033-.2.313.296.368.721.162 1.196-.345.799-1.278.979-2.07.457-.492-.324-.68-.85-.936-1.33-.265-.496-.572-.713-1.02-.637-.365.062-.587.342-.78.622-.244.353-.438.741-.687 1.09a2.513 2.513 0 0 1-3.339.732c-1.03-.596-1.545-1.567-1.815-2.682-.315-1.295-.048-2.53.424-3.744.517-1.33 1.325-2.509 1.943-3.785.524-1.081.607-2.167-.094-3.225-.547-.824-1.294-1.262-2.292-1.322-.936-.057-1.748.208-2.428.833-.419.385-.673.89-.878 1.423-.291.756-.405 1.554-.608 2.33-.206.79-.487 1.545-1.057 2.142-.626.655-1.399 1.072-2.332 1.244.031.45-.065.916.053 1.38.022.087.006.184.007.276.02 1.461.006 2.924.079 4.382.035.714.024 1.426.04 2.139.004.211.064.271.28.286 1.02.07 2.035.186 3.049.349 1.356.217 2.69.52 3.99.95a24.64 24.64 0 0 1 5.235 2.413c.867.535 1.721 1.09 2.51 1.731.883.72 1.718 1.497 2.453 2.374.202.24.42.468.648.72.818-.574 1.507-1.248 1.778-2.254.144-.534.252-1.07.118-1.63a1.085 1.085 0 0 1 .059-.626c.114-.304.293-.41.673-.338.266.051.374.257.365.517-.045 1.304-.427 2.473-1.27 3.502-.543.663-1.276 1.062-1.929 1.574-.488.384-.894.839-1.093 1.445a.357.357 0 0 0-.01.12c0 .029.012.057.023.1.213-.072.233-.294.359-.426a10.835 10.835 0 0 1 1.82-1.547c1.035-.694 1.813-1.592 2.196-2.788.335-1.045.444-2.118.262-3.21-.004-.026-.036-.047-.056-.07-.062-.012-.081.044-.119.07-.099.07-.168.016-.24-.053-.066-.066-.08-.129-.044-.218.04-.096.097-.137.205-.13.27.015.356.214.383.422.071.545.15 1.082.085 1.647-.072.637-.16 1.258-.38 1.862a4.99 4.99 0 0 1-1.485 2.15c-.577.49-1.214.904-1.761 1.43-.322.31-.557.674-.762 1.115.3-.11.433-.365.646-.52.722-.522 1.444-1.05 2.12-1.628.724-.62 1.367-1.322 1.579-2.303.041-.194.044-.398.093-.59.041-.164.107-.351.334-.32.211.03.227.2.214.374a4.11 4.11 0 0 1-.922 2.294c-.575.716-1.253 1.328-1.971 1.894a13.89 13.89 0 0 1 1.449 3.072c.318.961.56 1.944.71 2.949.112.756.222 1.51.258 2.276.013.28.021.565.05.846v1.241c-.051 1.265-.137 2.525-.426 3.765-.08.346-.137.702-.244 1.041-.145.462.054.882.13 1.314.092.523.164 1.048.238 1.574.058.408.023.812.06 1.216.098.329.06.658 0 .986l.006.006Zm-1.971-14.08c.08-.516.105-1.031 0-1.546-.077-1.466-.186-2.928-.518-4.367-.29.078-.41.316-.6.463-.863.664-1.438 1.51-1.527 2.614-.078.964.08 1.903.476 2.79.745 1.665 1.567 3.297 2.225 5.001.341.88.687 1.76.928 2.676.107.407.254.803.388 1.223.23-.585.569-2.88.593-4.73.119-.35.033-.698.063-1.088-.175.093-.096.203-.137.276-.17.479-.292.978-.562 1.421.152-.68.33-1.352.42-2.041.06-.457.147-.916.14-1.373-.005-.456-.092-.914-.178-1.365-.273-1.443-.66-2.852-1.288-4.187-.09-.194-.15-.41-.341-.593.088.711.049 1.389.166 2.054v1.663a.343.343 0 0 0-.071.253c.023.455.004.91-.069 1.359-.036.218-.021.453-.116.663-.13-.395.027-.778.008-1.165v-.002Zm-4.002-9.776c.275.903.51 1.743.676 2.6.025.127.058.207.218.105.396-.253.804-.488 1.23-.743-.694-.675-1.297-1.391-2.123-1.962Zm2.73 16.43c-.189-.507-.374-1-.554-1.496-.08-.217-.258-.087-.39-.116-.096-.021-.204-.021-.249.112-.136.398-.076.776.159 1.11.233.332.541.55 1.034.39Zm-.743-1.941c-.23-.59-.467-1.16-.757-1.706-.071-.133-.21-.07-.24.055-.11.449-.105.888.17 1.293.196.287.449.42.826.358h.001Zm-1.668-3.58c-.23.39-.236.673-.013 1.02.154.236.363.407.724.415l-.711-1.435Zm-.822-1.498c-.093.452.08.774.487.917l-.487-.917Z" fill="#fff"/><path d="M42.255 47.912c-5.702 6.627-12.917 10.141-21.653 10.523H18.51c-.59-.002-1.18-.008-1.766-.072-1.91-.207-3.811-.452-5.552-1.352-1.022-.529-1.612-1.365-1.648-2.524-.014-.471.162-.928.452-1.325-.124.64-.038 1.244.326 1.775.312.456.671.887 1.3.906.066.277.153.545.308.788-.014.012-.042.032-.04.035.162.257.385.399.699.348.256-.04.436-.178.511-.435.118-.184.17-.394.245-.595l.027-.01h.028c-.017.197.066.376.138.542.217.498.528.946 1.103 1.04.629.102 1.062-.245 1.39-.749.148-.226.156-.512.327-.726.102.255.189.518.31.763.348.71 1.076 1.066 1.594.956.797-.17 1.252-.721 1.497-1.485.051-.16-.076-.39.166-.483.041.065.1.126.121.197.126.446.407.787.747 1.078.42.36.913.443 1.43.261.77-.272 1.129-.887 1.342-1.635.084-.294-.033-.601.111-.879.191.562.442 1.074.895 1.492.81.747 1.931.374 2.45-.281.488-.616.61-1.301.614-2.042 0-.005.017-.01.053-.032.077.174.147.35.232.519.297.586.726 1.044 1.355 1.267.55.194 1.128.087 1.514-.285 1.027-.985 2.351-1.506 3.462-2.352.852-.649 1.715-1.28 2.548-1.953 1.221-.987 2.346-2.076 3.433-3.201.671-.695 1.304-1.431 1.841-2.24.014-.02.04-.032.09-.068.063.347-.035.687.095.999-.001.412-.003.823-.003 1.235Z" fill="#fff"/><path d="M36.223 42.182c.87.3 1.698.688 2.507 1.121.35.313.783.519 1.098.866-.095.083-.189.167-.315.28-.332-.17-.666-.451-1.037-.673-.935-.559-1.94-.915-2.995-1.153-.655-.147-1.314-.281-1.993-.25-.056.003-.125.023-.16-.05-.388-.13-.776-.095-1.166-.018a14.064 14.064 0 0 0-3.02.45c-1.598.433-3.114 1.082-4.568 1.877-.131.072-.16.148-.162.28-.007 1.256.068 2.51.084 3.765.006.536.042 1.077.034 1.614-.008.49.085.973.07 1.461-.004.1.01.194-.08.28-.628.6-.862 1.357-.846 2.206-.176-.411-.574-.757-.373-1.278-.002-.308-.002-.617-.003-.925 0-.307 0-.613.002-.92-.005-.556.06-1.114-.045-1.667l-.019-.49v-1.23c-.006-.33.069-.665-.047-.992v-1.274c-2.778 1.766-5.248 3.823-7.606 6.092 1.462.86 2.918 1.651 4.613 1.964-.193.439-.355.865-.337 1.332-.077-.026-.097-.102-.111-.162-.095-.416-.347-.725-.622-1.04-.439-.502-1.514-.542-2.012-.014-.386.411-.598.898-.756 1.422-.157-.038-.135-.197-.17-.295-.222-.622-.76-1.064-1.494-1.013-.642.043-1.218.822-1.231 1.416l-.112.069c-.124-.198-.135-.453-.32-.62.034-.189-.173-.193-.25-.316 2.922-3.371 6.183-6.363 9.852-8.905 1.27-.834 2.558-1.635 3.933-2.288 1.131-.495 2.287-.92 3.5-1.17h.131a8.986 8.986 0 0 1 1.9-.241h1.05l.248-.004c.555.104 1.12.136 1.676.245.386.076.76.207 1.15.25l.002-.002ZM24.179 58.671c.19-.129.421-.085.626-.11a30.61 30.61 0 0 0 2.828-.48 26.315 26.315 0 0 0 4.416-1.387 27.638 27.638 0 0 0 3.777-1.898 27.204 27.204 0 0 0 2.745-1.856c1.048-.818 2.064-1.676 2.922-2.702.144-.173.308-.329.515-.548a7.134 7.134 0 0 1-.369 1.47c-.484 1.39-1.315 2.553-2.395 3.534-.973.883-2.093 1.553-3.297 2.074a18.617 18.617 0 0 1-3.265 1.059c-.813.185-1.63.353-2.455.477-.943.142-1.89.24-2.84.322-.52.044-1.037.012-1.554.053l-1.653-.008h-.001Z" fill="#fff"/><path d="M41.604 42.272c.187.654.255 1.322.397 1.974.034.154-.02.293-.112.425a20.863 20.863 0 0 1-1.623 2.061c-.54.597-1.057 1.214-1.65 1.76-.848.781-1.696 1.563-2.587 2.3-1.202.994-2.473 1.887-3.785 2.726-.088.056-.177.14-.302.102.037-.43.09-.857-.021-1.284-.024-.093.012-.15.107-.214a33.894 33.894 0 0 0 2.524-1.817c.433-.346.865-.694 1.285-1.056.767-.66 1.467-1.392 2.171-2.117a21.548 21.548 0 0 0 2.093-2.543 21.3 21.3 0 0 0 1.43-2.252c.012-.024.042-.039.073-.065ZM29.787 55.534c-.774.093-1.43-.548-1.742-1.252-.492-1.115-.381-2.189.31-3.185.628-.906 1.862-.978 2.576-.27.729.72.937 1.587.81 2.584-.081.644-.328 1.184-.783 1.637-.326.326-.701.532-1.171.486Zm-1.622-2.575c-.037.766.225 1.41.797 1.928.323.294.9.383 1.292.193.762-.372 1.312-1.446 1.172-2.284-.09-.543-.189-1.078-.557-1.523-.444-.535-1.383-.798-1.984-.184-.516.527-.759 1.137-.72 1.87ZM25.599 51.847c.77-.054 1.222.357 1.55.934.514.905.471 2.243-.22 3.09-.707.865-1.906.97-2.624-.132-.674-1.033-.675-2.132.003-3.166.293-.446.702-.829 1.29-.725Zm1.526 2.227c.021-.354-.09-.77-.31-1.165-.529-.951-1.69-1.072-2.294-.02-.497.866-.481 1.771.04 2.61.6.965 1.659.825 2.176.03.273-.419.384-.868.388-1.454ZM13.032 54.611c.184.166.197.422.32.62a.981.981 0 0 0-.006.753c-.076.2-.128.411-.246.595-.03.003-.073-.008-.089.008-.41.412-.647.423-1.08.044a2.5 2.5 0 0 1-.308-.788c-.043-.212.077-.407.063-.615.137-.284.203-.612.5-.794.34-.213.58.044.846.177Zm.065 1.003c.029-.34-.026-.666-.312-.918-.254-.225-.505-.19-.7.09-.39.555-.353 1.117-.028 1.68.147.256.432.314.673.148.351-.24.383-.604.367-1Z" fill="#fff"/><path d="m24.18 58.671 1.653.008c-.441.118-.89.044-1.335.05-.236.002-.483.042-.741-.066.165-.082.295-.07.421.008h.001Z" fill="#949494"/><path d="M18.51 58.435h2.092c-.431.116-.872.039-1.307.048-.26.006-.53.06-.785-.048Z" fill="#DBDBDB"/><path d="M30.62 59.4c.113-.11.252-.058.376-.05.472.032.95-.066 1.419.05H30.62Z" fill="#fff"/><path d="M22.88 11.927c.116.195.048.408.054.611.011.372-.002.745-.004 1.118-.108-.574-.034-1.153-.049-1.73Z" fill="#CFCFCF"/><path d="M22.948 14.146c.103.573.039 1.152.045 1.728a.38.38 0 0 0-.044-.008l-.001-1.72ZM39.789 40.048c-.061-.266.067-.507.1-.762.007-.058.024-.114.036-.171.058.041.138.055.169.132-.2.07-.113.268-.165.4-.05.13-.063.277-.14.4v.002Z" fill="#fff"/><path d="M12.186 54.434c-.297.183-.363.511-.5.795l-.027.003-.026-.002a1.16 1.16 0 0 1 .48-.867l.073.07v.001Z" fill="#DADADA"/><path d="M22.886 7.072c.11.41.035.826.046 1.238l-.045-.008c-.03-.306.03-.617-.068-.921a.31.31 0 0 1 .067-.31ZM20.058 34.623c.087.535.086 1.07 0 1.605v-1.605Z" fill="#fff"/><path d="M12.55 18.457c-.533.12-1.073.037-1.609.046.217-.123.45-.034.673-.044.312-.014.624-.002.936-.002Z" fill="#8E8E8E"/><path d="M22.949 15.867c.015.001.03.005.044.008-.029.45.082.904-.044 1.351v-1.36Z" fill="#fff"/><path d="m42.255 47.912.003-1.235c.082.412.094.823-.003 1.235Z" fill="#B0B0B0"/><path d="M45.576 38.876v-1.242c.09.414.096.828 0 1.242ZM32.162 42.305c.39-.078.778-.112 1.165.018l-1.165-.018Z" fill="#fff"/><path d="M45.334 48.772c.058-.33.097-.658 0-.987.052.013.111.04.104.094-.042.297.135.62-.105.893Z" fill="#E3E3E3"/><path d="M38.866 43.058c.054-.269.062-.556.308-.745-.089.254-.145.521-.308.745Z" fill="#fff"/><path d="M43.3 47.965c.095.373.093.745-.002 1.118l.001-1.118Z" fill="#B1B1B1"/><path d="M22.887 8.303c.015.002.03.004.045.008-.024.347.071.7-.044 1.042l-.001-1.05ZM21.833 18.03c-.349.075-.698.095-1.047.004l1.047-.003Z" fill="#fff"/><path d="M22.884 10.083c.107.327.041.662.047.994-.105-.327-.04-.662-.047-.994Z" fill="#868686"/><path d="M22.819 6.146c.117.305.043.62.05.932-.114-.306-.029-.622-.05-.932Z" fill="#ECECEC"/><path d="M22.822 3.502c.11.306.04.621.047.933-.11-.307-.035-.622-.047-.933Z" fill="#969696"/><path d="m27.724 36.654-.11 1.356c-.004.05.001.104-.063.124l-.05-.063.124-1.6.1.183ZM31.242 35.8c-.004.456.028.915-.124 1.358-.117-.07-.08-.197-.056-.272.124-.377-.026-.781.128-1.152l.052.066Z" fill="#fff"/><path d="M13.718 18.95c-.318.106-.645.047-.968.055-.44.01-.879-.005-1.319-.008.026-.057.078-.058.128-.057l2.159.01Z" fill="#8B8B8B"/><path d="M37.206 38.143c-.129-.061-.02-.133-.01-.2l.148-1.041.1.12c-.095.37-.068.766-.237 1.12l-.001.001ZM34.553 35.917l-.113.968c-.006.057.015.124-.064.15a4.187 4.187 0 0 1 .037-.944c.01-.058.024-.116.036-.174h.104ZM37.585 34.2l-.002-1.791c.117.26.052.535.05.802-.004.329.055.664-.048.989Z" fill="#fff"/><path d="M24.052 34.376a4.992 4.992 0 0 1 0 1.67v-1.67Z" fill="#7A7A7A"/><path d="M43.61 31.919c.094.553.082 1.108.002 1.662l-.002-1.663Z" fill="#CBCBCB"/><path d="M20.544 34.006a4.853 4.853 0 0 1 0 1.671v-1.67Z" fill="#fff"/><path d="M31.185 35.368v-1.669a4.95 4.95 0 0 1 0 1.669Z" fill="#767676"/><path d="m23.931 36.41-.01-1.189c0-.12.011-.24-.05-.351.032.022.09.043.091.066.015.492.077.985-.03 1.474h-.001Z" fill="#fff"/><path d="M43.362 34.691v-1.545c.104.515.078 1.03 0 1.545Z" fill="#747474"/><path d="M27.617 35.862v-1.487a3.93 3.93 0 0 1 0 1.487Z" fill="#A9A9A9"/><path d="M31.306 33.206a3.95 3.95 0 0 1 .001 1.489v-1.49ZM27.738 34.005c.098.455.098.91 0 1.365v-1.365Z" fill="#fff"/><path d="M45.327 38.815c-.052-.268.084-.553-.074-.812.041-.072-.037-.183.137-.276-.03.39.056.74-.063 1.088Z" fill="#CECECE"/><path d="M37.765 31.916c.096.434.091.867 0 1.301v-1.301Z" fill="#6B6B6B"/><path d="M16.358 55.053c.158-.523.37-1.01.756-1.42.498-.53 1.573-.49 2.012.013.275.315.527.624.622 1.04.014.06.034.136.111.162.036.327.083.653.066.983-.242.092-.115.324-.166.484-.245.763-.7 1.315-1.497 1.485-.518.11-1.246-.247-1.594-.956-.12-.246-.208-.508-.31-.763.052-.343.016-.685 0-1.028Zm1.781 2.515c.533.036.894-.282 1.171-.694.524-.782.523-1.632.17-2.465-.217-.514-.616-.888-1.213-.967-.681-.09-1.125.28-1.436.81-.465.793-.471 1.634-.035 2.438.274.503.662.918 1.343.878Z" fill="#fff"/><path d="M16.358 55.053c.016.343.052.686 0 1.028-.171.213-.18.5-.326.726-.33.503-.763.851-1.39.749-.576-.094-.887-.542-1.104-1.04-.073-.166-.156-.346-.138-.542-.122-.282.044-.542.064-.813.013-.595.59-1.373 1.231-1.417.733-.05 1.272.392 1.494 1.014.035.097.013.257.17.294v.002Zm-2.827.575c-.049.464.1.901.378 1.28.473.643 1.327.656 1.847.054.577-.67.55-1.817.1-2.505-.417-.637-1.41-.709-1.832-.186-.324.4-.528.818-.494 1.358v-.001Z" fill="#FBFBFB"/><path d="M11.93 56.63c.433.38.671.37 1.08-.043.017-.016.06-.006.09-.008-.075.257-.255.394-.511.435-.314.05-.537-.09-.7-.348-.001-.002.027-.023.041-.035Z" fill="#F2F2F2"/><path d="M13.464 55.161c-.02.272-.187.531-.064.814h-.029l-.026.009a.982.982 0 0 1 .006-.754c.038-.022.075-.046.113-.069Z" fill="#A7A7A7"/><path d="M23.492 55.115c-.026.544-.198 1.187-.75 1.7-.756.705-1.654.477-2.205-.231-.328-.422-.45-.918-.548-1.426-.148-.754.44-1.974 1.153-2.284.607-.264 1.381-.146 1.801.462.427.617.551.97.55 1.78Zm-.371-.198c.042-.468-.1-.91-.374-1.308-.408-.59-1.256-.714-1.752-.238-.786.755-.862 2.107-.197 2.996.551.737 1.398.686 1.938-.041.31-.417.41-.882.384-1.409ZM23.255 49.446c.104.553.04 1.111.044 1.667a.55.55 0 0 0-.043-.008v-1.659Z" fill="#fff"/><path d="M23.236 47.727v1.23c-.11-.409-.032-.824-.046-1.236l.045.006Z" fill="#D7D7D7"/><path d="M23.236 47.727a.526.526 0 0 1-.045-.006l-.002-.987c.116.326.04.661.047.993Z" fill="#B7B7B7"/><path d="m23.256 51.105.043.008-.001.92-.042-.005v-.923Z" fill="#fff"/><path d="m23.256 52.028.042.006.003.925c-.11-.306-.04-.62-.045-.93Z" fill="#777"/><path d="M36.405 41.757c-.013-.4.06-.775.308-1.1l-.308 1.1Z" fill="#A2A2A2"/><path d="m30.502 40.716-.268.9c-.031.104-.104.201-.036.315h-.13c.102-.37.206-.739.307-1.109.02-.07.059-.102.128-.106h-.001Z" fill="#BABABA"/><path d="m33.575 41.082-.178.604c-.083 0-.165.002-.248.003l-.008-.041c.168.017.195-.112.236-.226.04-.114.083-.227.125-.34h.073Z" fill="#C7C7C7"/><path d="m33.142 41.648.008.041-1.051.001c.343-.11.695-.04 1.043-.042ZM28.164 52.96c-.038-.733.205-1.344.72-1.87.6-.615 1.54-.352 1.984.184.368.444.467.98.558 1.523.14.837-.41 1.912-1.173 2.283-.393.192-.968.101-1.292-.193-.57-.518-.834-1.162-.797-1.927Zm2.343.032a1.641 1.641 0 0 0-.251-.97c-.304-.493-.94-.49-1.223.013-.359.637-.36 1.271.048 1.892.214.326.516.42.852.24.468-.253.554-.7.574-1.175ZM27.125 54.074c-.003.586-.115 1.036-.388 1.455-.517.795-1.577.934-2.175-.03-.522-.84-.538-1.745-.04-2.61.605-1.052 1.765-.932 2.294.02.22.396.33.81.309 1.165Zm-2.353.236c-.03.206.083.49.26.753.23.345.595.378.903.092.158-.148.263-.319.33-.528.117-.364.066-.718-.047-1.062-.09-.273-.262-.504-.58-.55-.344-.048-.553.116-.71.422-.126.246-.138.495-.157.873Z" fill="#fff"/><path d="M13.096 55.614c.016.395-.015.759-.367 1-.24.165-.526.107-.673-.149-.323-.563-.36-1.125.028-1.68.196-.28.446-.315.7-.09.286.253.34.58.312.919Zm-.546.55c.197-.215.256-.71.118-.951-.087-.155-.228-.229-.38-.155-.16.077-.256.226-.173.425v.29c-.103.21.041.337.17.458.11.102.197.033.265-.068Z" fill="#FDFDFD"/><path d="m23.06 43.731-.195.786-.06-.058c.075-.246.021-.538.255-.728Z" fill="#AAA"/><path d="m22.804 44.459.061.058c-.093.276-.144.568-.298.822.014-.31.142-.59.237-.88Z" fill="#C9C9C9"/><path d="m27.502 38.07.05.063c.023.338-.023.667-.124.99-.117-.269.045-.53.029-.798a.744.744 0 0 1 .045-.254Z" fill="#fff"/><path d="M26.994 41.583c-.087.332-.132.678-.304.983.056-.342.053-.702.304-.983Z" fill="#ABABAB"/><path d="m33.575 41.082-.073-.001c.076-.226.017-.505.257-.668l-.184.67Z" fill="#ADADAD"/><path d="M43.143 37.554c.042.206-.057.389-.154.573l.076-.577.078.004Z" fill="#B3B3B3"/><path d="m43.281 36.375-.01.018-.025-.02.018-.017.018.018v.001ZM18.14 57.568c-.682.04-1.07-.376-1.344-.878-.437-.803-.43-1.645.035-2.438.31-.53.755-.9 1.436-.81.597.08.995.453 1.213.967.353.833.354 1.684-.17 2.465-.277.412-.637.73-1.17.694Zm-1.285-2.101c-.044.386.06.747.24 1.093.48.911 1.364.897 1.879.26.523-.648.56-1.809.08-2.54-.44-.67-1.397-.711-1.826-.06-.245.372-.43.773-.372 1.247ZM13.53 55.628c-.034-.54.17-.957.494-1.358.422-.522 1.416-.45 1.832.186.451.688.478 1.836-.1 2.505-.52.603-1.374.59-1.846-.053-.279-.379-.427-.817-.379-1.28Zm.245.005c0 .415.112.85.34 1.123.442.53 1.02.525 1.446.024.5-.589.505-1.519.099-2.137-.424-.643-1.21-.627-1.593-.002-.193.316-.324.642-.292.991ZM23.12 54.917c.026.527-.075.992-.383 1.409-.54.728-1.388.778-1.939.04-.665-.888-.589-2.24.197-2.995.496-.476 1.344-.353 1.752.238.275.398.416.84.374 1.308Zm-2.21.041c-.032.376.065.558.188.766.288.487.807.497 1.091.016.287-.485.27-.994.017-1.489-.13-.254-.337-.4-.65-.38-.293.018-.425.224-.515.44-.086.207-.187.43-.13.647ZM30.507 52.992c-.02.475-.107.922-.575 1.175-.335.18-.637.087-.851-.24-.409-.621-.407-1.255-.048-1.892.284-.504.92-.507 1.223-.012.182.296.27.617.25.969Zm-.257-.03a1.111 1.111 0 0 0-.17-.8c-.108-.163-.221-.264-.438-.262-.214 0-.335.09-.431.263-.288.517-.295 1.03-.011 1.553.1.186.213.29.442.29.23 0 .338-.112.45-.288.15-.236.19-.482.158-.755ZM24.772 54.31c.019-.378.03-.627.157-.873.157-.306.366-.47.71-.421.317.046.489.277.58.55.112.343.163.698.047 1.062-.067.208-.171.38-.33.527-.308.286-.673.253-.904-.092-.177-.264-.288-.547-.26-.753Zm.202-.122c-.053.294.09.526.238.757.169.266.576.204.717-.034.235-.398.318-1.026-.009-1.478-.235-.326-.569-.332-.765.01-.131.228-.225.473-.18.745h-.001ZM12.115 55.773v-.29c.075-.027.047-.104.074-.15.053-.086.053-.23.208-.224.149.004.167.137.204.229a.8.8 0 0 1-.058.747c-.166.127-.26.058-.337-.11-.031-.066.01-.169-.092-.202h.001Z" fill="#fff"/><path d="M12.544 56.085a.802.802 0 0 0 .059-.747c-.038-.091-.056-.224-.205-.23-.156-.004-.155.138-.207.225-.028.046 0 .123-.075.15-.083-.199.013-.347.173-.425.152-.074.293 0 .38.155.138.241.079.737-.118.95l-.006-.077ZM16.855 55.466c-.057-.474.128-.874.372-1.245.43-.652 1.386-.611 1.827.06.48.73.442 1.89-.08 2.538-.516.637-1.4.652-1.88-.26-.18-.345-.283-.706-.24-1.093h.001Zm1.719.085v-.297c-.001-.331-.246-.722-.478-.763-.375-.066-.61.082-.783.486-.177.417-.122.822.1 1.195.285.478.711.46 1.013-.012.14-.218.157-.449.148-.61ZM13.775 55.633c-.032-.35.099-.676.292-.991.384-.626 1.17-.642 1.593.002.406.617.402 1.547-.1 2.137-.425.5-1.003.506-1.446-.024-.227-.273-.339-.71-.339-1.124Zm1.417.022c0-.104.005-.196-.002-.287-.02-.296-.239-.58-.517-.611-.285-.033-.428.183-.522.409-.12.288-.106.587-.003.88.074.212.15.402.439.42.319.02.443-.16.56-.405.067-.142.021-.28.045-.406ZM20.911 54.958c-.057-.217.044-.439.13-.647.09-.216.222-.422.516-.44.313-.02.519.126.65.38.252.495.27 1.004-.018 1.49-.284.48-.802.47-1.091-.017-.123-.207-.22-.39-.187-.766Zm.183.008c0 .27.07.526.186.71.197.308.543.305.733-.008.266-.439.243-.901.034-1.338-.128-.269-.447-.439-.733-.092a.97.97 0 0 0-.22.728Z" fill="#fff"/><path d="M18.575 55.55c.009.161-.01.392-.148.61-.301.471-.729.49-1.013.013-.223-.374-.277-.78-.1-1.195.172-.405.407-.553.783-.487.23.04.476.432.477.763v.297Zm-1.17-.106c-.01.239.036.458.161.64.243.355.537.335.73-.054.176-.351.156-.723.02-1.084-.07-.185-.21-.33-.424-.323-.193.007-.284.17-.365.32a.989.989 0 0 0-.123.502ZM15.192 55.655c-.024.126.023.264-.045.406-.117.244-.241.424-.56.405-.289-.018-.365-.208-.44-.42-.102-.294-.116-.592.003-.88.095-.226.238-.442.523-.41.278.033.497.316.517.611.007.092.002.184.002.288Zm-.13-.072c.045-.197-.039-.371-.145-.53-.118-.176-.395-.19-.524-.042-.25.288-.25.877.002 1.176.188.225.403.206.549-.053a.854.854 0 0 0 .118-.55Z" fill="#fff"/></g><defs><clipPath id="a"><path fill="#fff" transform="translate(0 .618)" d="M0 0h46v58.853H0z"/></clipPath></defs></svg>