<svg width="18" height="14" fill="none" xmlns="http://www.w3.org/2000/svg"><path d="M17.713 5.513c0-.388-.065-.84-.065-1.357a88.478 88.478 0 0 0-.194-1.487c-.129-.518-.323-.905-.71-1.229-.324-.323-.776-.517-1.229-.581C14.028.665 11.83.6 8.857.6 5.883.6 3.62.665 2.198.859c-.453.064-.905.258-1.228.581A2.58 2.58 0 0 0 .259 2.67c-.13.452-.194.905-.194 1.487C0 4.673 0 5.126 0 5.513v2.974c0 .388.065.84.065 1.357.064.518.129 1.035.194 1.487.129.518.323.905.71 1.229.324.323.776.517 1.229.581 1.487.194 3.685.259 6.659.259 2.973 0 5.236-.065 6.658-.259.453-.064.905-.258 1.228-.581.324-.324.582-.712.712-1.229.129-.452.194-.905.194-1.487.064-.517.064-.97.064-1.357V5.513Zm-5.43 2.004-5.107 3.168a.494.494 0 0 1-.323.13c-.13 0-.194 0-.324-.066a.679.679 0 0 1-.323-.581v-6.4c0-.259.13-.453.323-.582a.587.587 0 0 1 .647 0l5.107 3.168c.194.129.323.323.323.517s-.13.517-.323.646Z" fill="#fff"/></svg>