<svg width="15" height="14" fill="none" xmlns="http://www.w3.org/2000/svg"><g clip-path="url(#a)"><path d="M9.217 8.35c-1.1 1.135-1.18 2.55-1.275 5.65 2.89 0 4.885-.01 5.915-1.01 1-1.03 1.01-3.12 1.01-5.915-3.1.1-4.515.175-5.65 1.275ZM.867 7.075c0 2.795.01 4.885 1.01 5.915 1.03 1 3.025 1.01 5.915 1.01-.1-3.1-.175-4.515-1.275-5.65-1.135-1.1-2.55-1.18-5.65-1.275ZM7.792 0C4.907 0 2.907.01 1.877 1.01c-1 1.03-1.01 3.12-1.01 5.915 3.1-.1 4.515-.175 5.65-1.275C7.617 4.515 7.697 3.1 7.792 0Zm1.425 5.65C8.117 4.515 8.037 3.1 7.942 0c2.89 0 4.885.01 5.915 1.01 1 1.03 1.01 3.12 1.01 5.915-3.1-.1-4.515-.175-5.65-1.275Z" fill="#fff"/></g><defs><clipPath id="a"><path fill="#fff" transform="translate(.867)" d="M0 0h14v14H0z"/></clipPath></defs></svg>