<svg width="32" height="35" fill="none" xmlns="http://www.w3.org/2000/svg"><path d="M24.778.83a47.15 47.15 0 0 0-17.624 0c-2.565.555-5.8 3.656-6.358 6.093a34.8 34.8 0 0 0 0 14.4c.67 2.436 3.904 5.537 6.358 6.091.112 0 .223.111.223.222v6.978c0 .332.446.554.67.222l3.346-3.434s2.677-2.77 3.123-3.212c0 0 .111-.111.223-.111 3.346.11 6.804-.222 10.15-.775 2.566-.554 5.8-3.656 6.358-6.092a34.803 34.803 0 0 0 0-14.4c-.67-2.326-3.904-5.427-6.47-5.981Zm.111 20.825c-.558 1.107-1.227 1.993-2.342 2.547l-1.004.332c-.446-.11-.78-.221-1.115-.332-3.57-1.44-6.916-3.434-9.593-6.313-1.45-1.662-2.677-3.545-3.68-5.539-.447-.997-.893-1.883-1.228-2.88-.334-.886.223-1.772.781-2.436.558-.665 1.227-1.108 2.008-1.44.557-.333 1.115-.111 1.561.332.893 1.108 1.785 2.215 2.454 3.434.446.775.335 1.661-.446 2.215-.223.11-.335.222-.558.443-.111.11-.334.221-.446.443-.223.332-.223.665-.111.997.892 2.548 2.565 4.541 5.13 5.649.447.221.781.332 1.34.332.78-.11 1.114-.997 1.672-1.44.558-.443 1.227-.443 1.896-.11.558.332 1.116.775 1.785 1.218.558.443 1.115.775 1.673 1.218.335.222.446.776.223 1.33Zm-4.684-8.308c-.224 0-.112 0 0 0-.447 0-.558-.221-.67-.554 0-.221 0-.553-.111-.775-.112-.443-.335-.886-.781-1.218l-.67-.333c-.334-.11-.557-.11-.892-.11-.334-.111-.446-.333-.446-.665 0-.222.335-.443.558-.443 1.785.11 3.123 1.107 3.346 3.212v.443c0 .222-.111.443-.335.443Zm-1.116-4.873c-.558-.222-1.115-.444-1.785-.554-.223 0-.557-.111-.78-.111-.335 0-.558-.222-.447-.554 0-.332.224-.554.558-.443 1.116.11 2.12.332 3.123.775 2.008.997 3.123 2.659 3.458 4.874V13.901c-.111.443-.892.554-1.004 0 0-.11-.111-.332-.111-.443 0-.997-.223-1.994-.67-2.88-.669-.997-1.45-1.661-2.342-2.104Zm6.023 6.645c-.334 0-.557-.332-.557-.664 0-.665-.112-1.33-.224-1.994-.446-3.544-3.346-6.424-6.803-6.978-.558-.11-1.116-.11-1.562-.222-.335 0-.78 0-.892-.443-.112-.332.223-.664.557-.664h.223c.224 0 4.574.11 0 0 4.685.11 8.59 3.212 9.37 7.864.111.775.223 1.55.223 2.437.223.332 0 .664-.335.664Z" fill="#fff"/></svg>