<svg width="33" height="33" fill="none" xmlns="http://www.w3.org/2000/svg"><path d="M27.845 5.182A15.869 15.869 0 0 0 16.6.522C7.803.522.677 7.623.677 16.389c0 2.774.779 5.548 2.115 7.878L.565 32.478l8.463-2.219c2.338 1.22 4.899 1.887 7.571 1.887 8.796 0 15.923-7.102 15.923-15.868-.112-4.105-1.67-8.1-4.677-11.096Zm-3.563 16.866c-.334.888-1.893 1.776-2.672 1.887-.668.11-1.56.11-2.45-.111-.557-.222-1.336-.444-2.227-.888-4.008-1.665-6.57-5.659-6.792-5.992-.223-.222-1.67-2.108-1.67-4.105 0-1.998 1.002-2.885 1.336-3.33.334-.443.78-.443 1.113-.443h.78c.223 0 .557-.111.89.666.335.776 1.114 2.774 1.225 2.885a.705.705 0 0 1 0 .665c-.11.222-.222.444-.445.666-.223.222-.445.555-.557.666-.222.222-.445.444-.222.777.222.444 1.002 1.664 2.227 2.774 1.558 1.331 2.783 1.775 3.229 1.997.445.222.668.11.89-.111.223-.222 1.002-1.11 1.225-1.553.223-.444.557-.333.891-.222.334.11 2.338 1.11 2.672 1.331.446.222.668.333.78.444.111.333.111 1.11-.223 1.997Z" fill="#fff"/></svg>