<svg width="558" height="70" viewBox="0 0 558 70" fill="none" xmlns="http://www.w3.org/2000/svg">
<path d="M0 20C0 10.5719 0 5.85786 2.92893 2.92893C5.85786 0 10.5719 0 20 0L398.521 0C403.938 0 406.646 0 408.077 0.438048C409.508 0.876096 416.559 5.63971 430.661 15.1669C440.82 22.0307 459.482 29.7607 493.76 35C528.039 40.2393 546.7 47.9693 556.86 54.8331C557.868 55.5141 558.372 55.8546 556.207 62.9273C554.041 70 552.361 70 549 70L20 70C10.5719 70 5.85786 70 2.92893 67.0711C0 64.1421 0 59.4281 0 50L0 20Z" fill="#00A7F5"/>
</svg>
