<svg width="120" height="70" viewBox="0 0 120 70" fill="none" xmlns="http://www.w3.org/2000/svg">
<path d="M0 20C0 10.5719 0 5.85786 2.92893 2.92893C5.85786 0 10.5719 0 20 0L69 0C77.2475 0 81.3712 0 83.8881 1.67506C86.4051 3.35013 88.6517 8.71784 93.145 19.4533C95.5021 25.085 99.1997 30.831 105 35C110.8 39.169 114.498 44.915 116.855 50.5467C119.794 57.5694 121.264 61.0807 118.296 65.5403C115.328 70 110.552 70 101 70L20 70C10.5719 70 5.85786 70 2.92893 67.0711C0 64.1421 0 59.4281 0 50L0 20Z" fill="#00A7F5"/>
</svg>
