<svg width="850" height="70" viewBox="0 0 850 70" fill="none" xmlns="http://www.w3.org/2000/svg">
<path d="M0 20C0 10.5719 0 5.85786 2.92893 2.92893C5.85786 0 10.5719 0 20 0L614.769 0C619.646 0 622.085 0 623.242 0.2792C624.398 0.558401 632.61 4.76799 649.032 13.1872C663.297 20.4997 691.826 29.2499 748.884 35C805.943 40.7501 834.472 49.5003 848.736 56.8128C851.493 58.2261 844.601 54.693 842.754 62.3465C840.906 70 844.396 70 843 70L20 70C10.5719 70 5.85786 70 2.92893 67.0711C0 64.1421 0 59.4281 0 50L0 20Z" fill="#00A7F5"/>
</svg>
